G04 Layer_Physical_Order=1*
G04 Layer_Color=25308*
%FSLAX24Y24*%
%MOIN*%
G70*
G01*
G75*
%ADD10R,0.0512X0.0689*%
%ADD11R,0.0492X0.0433*%
%ADD12R,0.0551X0.0709*%
%ADD13R,0.0433X0.0492*%
G04:AMPARAMS|DCode=14|XSize=43.3mil|YSize=49.2mil|CornerRadius=0mil|HoleSize=0mil|Usage=FLASHONLY|Rotation=225.000|XOffset=0mil|YOffset=0mil|HoleType=Round|Shape=Rectangle|*
%AMROTATEDRECTD14*
4,1,4,-0.0021,0.0327,0.0327,-0.0021,0.0021,-0.0327,-0.0327,0.0021,-0.0021,0.0327,0.0*
%
%ADD14ROTATEDRECTD14*%

%ADD15R,0.0400X0.0200*%
%ADD16O,0.0098X0.0610*%
%ADD17O,0.0610X0.0098*%
%ADD18R,0.0374X0.0236*%
%ADD19R,0.0236X0.0669*%
G04:AMPARAMS|DCode=20|XSize=55.1mil|YSize=70.9mil|CornerRadius=0mil|HoleSize=0mil|Usage=FLASHONLY|Rotation=225.000|XOffset=0mil|YOffset=0mil|HoleType=Round|Shape=Rectangle|*
%AMROTATEDRECTD20*
4,1,4,-0.0056,0.0445,0.0445,-0.0056,0.0056,-0.0445,-0.0445,0.0056,-0.0056,0.0445,0.0*
%
%ADD20ROTATEDRECTD20*%

%ADD21R,0.0650X0.0217*%
%ADD22O,0.0650X0.0217*%
%ADD23R,0.0354X0.0413*%
%ADD24C,0.0200*%
%ADD25C,0.0070*%
%ADD26C,0.0100*%
G04:AMPARAMS|DCode=27|XSize=78.7mil|YSize=78.7mil|CornerRadius=19.7mil|HoleSize=0mil|Usage=FLASHONLY|Rotation=0.000|XOffset=0mil|YOffset=0mil|HoleType=Round|Shape=RoundedRectangle|*
%AMROUNDEDRECTD27*
21,1,0.0787,0.0394,0,0,0.0*
21,1,0.0394,0.0787,0,0,0.0*
1,1,0.0394,0.0197,-0.0197*
1,1,0.0394,-0.0197,-0.0197*
1,1,0.0394,-0.0197,0.0197*
1,1,0.0394,0.0197,0.0197*
%
%ADD27ROUNDEDRECTD27*%
%ADD28O,0.0591X0.1200*%
%ADD29R,0.0591X0.0591*%
%ADD30C,0.0591*%
%ADD31C,0.0300*%
G36*
X20294Y32453D02*
X20341Y32391D01*
X20403Y32344D01*
X20476Y32314D01*
X20504Y32310D01*
X20507Y32239D01*
X20457Y32229D01*
X20375Y32175D01*
X20321Y32093D01*
X20301Y31997D01*
Y31603D01*
X20321Y31507D01*
X20375Y31425D01*
X20457Y31371D01*
X20553Y31351D01*
X20947D01*
X21043Y31371D01*
X21125Y31425D01*
X21168Y31490D01*
X21238Y31470D01*
Y31130D01*
X21168Y31110D01*
X21125Y31175D01*
X21043Y31229D01*
X20947Y31249D01*
X20553D01*
X20457Y31229D01*
X20375Y31175D01*
X20321Y31093D01*
X20301Y30997D01*
Y30603D01*
X20321Y30507D01*
X20375Y30425D01*
X20457Y30371D01*
X20553Y30351D01*
X20947D01*
X21043Y30371D01*
X21125Y30425D01*
X21168Y30490D01*
X21238Y30470D01*
Y30130D01*
X21168Y30110D01*
X21125Y30175D01*
X21043Y30229D01*
X20947Y30249D01*
X20553D01*
X20457Y30229D01*
X20375Y30175D01*
X20321Y30093D01*
X20301Y29997D01*
Y29603D01*
X20321Y29507D01*
X20375Y29425D01*
X20457Y29371D01*
X20553Y29351D01*
X20947D01*
X21043Y29371D01*
X21125Y29425D01*
X21168Y29490D01*
X21238Y29470D01*
Y29130D01*
X21168Y29110D01*
X21125Y29175D01*
X21043Y29229D01*
X20947Y29249D01*
X20553D01*
X20457Y29229D01*
X20375Y29175D01*
X20321Y29093D01*
X20301Y28997D01*
Y28603D01*
X20321Y28507D01*
X20375Y28425D01*
X20457Y28371D01*
X20553Y28351D01*
X20947D01*
X21043Y28371D01*
X21125Y28425D01*
X21168Y28490D01*
X21238Y28470D01*
Y28130D01*
X21168Y28110D01*
X21125Y28175D01*
X21043Y28229D01*
X20947Y28249D01*
X20553D01*
X20457Y28229D01*
X20375Y28175D01*
X20321Y28093D01*
X20301Y27997D01*
Y27603D01*
X20321Y27507D01*
X20375Y27425D01*
X20457Y27371D01*
X20553Y27351D01*
X20947D01*
X21043Y27371D01*
X21125Y27425D01*
X21179Y27507D01*
X21199Y27603D01*
Y27997D01*
X21198Y28000D01*
X21263Y28028D01*
X21667Y27625D01*
X21653Y27557D01*
X21669Y27479D01*
X21713Y27413D01*
X21770Y27374D01*
Y27092D01*
X21620D01*
Y26768D01*
X21570D01*
Y26600D01*
X21857D01*
Y26500D01*
X21570D01*
Y26332D01*
X21620D01*
Y26008D01*
X21655D01*
X21676Y25938D01*
X21656Y25924D01*
X21612Y25858D01*
X21596Y25780D01*
X21612Y25702D01*
X21656Y25636D01*
X21713Y25597D01*
Y24557D01*
X21557D01*
Y24043D01*
X21713D01*
Y24000D01*
X21720Y23967D01*
X21739Y23939D01*
X22510Y23168D01*
X22496Y23100D01*
X22512Y23022D01*
X22556Y22956D01*
X22622Y22912D01*
X22700Y22896D01*
X22778Y22912D01*
X22844Y22956D01*
X22888Y23022D01*
X22904Y23100D01*
X22888Y23178D01*
X22844Y23244D01*
X22778Y23288D01*
X22700Y23304D01*
X22632Y23290D01*
X21949Y23973D01*
X21978Y24043D01*
X22011D01*
Y24557D01*
X21887D01*
Y25552D01*
X21915Y25569D01*
X21985Y25529D01*
Y25203D01*
X22128D01*
Y24869D01*
X22139Y24811D01*
X22173Y24761D01*
X22292Y24642D01*
X22315Y24627D01*
X22293Y24557D01*
X22089D01*
Y24043D01*
X22543D01*
Y24213D01*
X22600D01*
X22633Y24220D01*
X22661Y24239D01*
X22717Y24294D01*
X22744Y24289D01*
X22800Y24250D01*
Y24250D01*
X22800Y24250D01*
X22800Y24250D01*
Y23850D01*
X22822D01*
X22861Y23780D01*
X22855Y23750D01*
X23345D01*
X23339Y23780D01*
X23378Y23850D01*
X23400D01*
Y24250D01*
X23400D01*
X23350Y24299D01*
Y24530D01*
X23350Y24550D01*
Y24575D01*
Y24600D01*
X23350Y24620D01*
Y24900D01*
X23115D01*
X23100Y24903D01*
X22463D01*
X22434Y24933D01*
Y25154D01*
X22483Y25203D01*
X22556D01*
X22559Y25200D01*
X22604Y25153D01*
X22604Y25153D01*
Y25153D01*
X22604Y25153D01*
X22900D01*
Y25470D01*
X23000D01*
Y25153D01*
X23296D01*
Y25251D01*
X23366Y25289D01*
X23402Y25264D01*
X23450Y25255D01*
Y25500D01*
Y25745D01*
X23406Y25736D01*
X23401Y25736D01*
X23331Y25772D01*
X23327Y25811D01*
X23657Y26141D01*
X23701Y26131D01*
X23727Y26114D01*
Y25727D01*
X23657Y25696D01*
X23598Y25735D01*
X23550Y25745D01*
Y25500D01*
Y25255D01*
X23598Y25264D01*
X23657Y25304D01*
X23727Y25273D01*
Y23702D01*
X21409Y21384D01*
X21390Y21356D01*
X21383Y21323D01*
Y20556D01*
X21051Y20224D01*
X21043Y20229D01*
X20947Y20249D01*
X20553D01*
X20457Y20229D01*
X20375Y20175D01*
X20321Y20093D01*
X20301Y19997D01*
Y19603D01*
X20321Y19507D01*
X20375Y19425D01*
X20457Y19371D01*
X20553Y19351D01*
X20947D01*
X21043Y19371D01*
X21125Y19425D01*
X21179Y19507D01*
X21199Y19603D01*
Y19997D01*
X21179Y20093D01*
X21174Y20101D01*
X21449Y20376D01*
X21513Y20349D01*
Y19686D01*
X21051Y19224D01*
X21043Y19229D01*
X20947Y19249D01*
X20553D01*
X20457Y19229D01*
X20375Y19175D01*
X20321Y19093D01*
X20301Y18997D01*
Y18603D01*
X20321Y18507D01*
X20375Y18425D01*
X20457Y18371D01*
X20553Y18351D01*
X20947D01*
X21043Y18371D01*
X21125Y18425D01*
X21179Y18507D01*
X21199Y18603D01*
Y18997D01*
X21179Y19093D01*
X21174Y19101D01*
X21579Y19506D01*
X21643Y19479D01*
Y18816D01*
X21051Y18224D01*
X21043Y18229D01*
X20947Y18249D01*
X20553D01*
X20457Y18229D01*
X20375Y18175D01*
X20321Y18093D01*
X20301Y17997D01*
Y17603D01*
X20321Y17507D01*
X20375Y17425D01*
X20457Y17371D01*
X20553Y17351D01*
X20947D01*
X21043Y17371D01*
X21113Y17417D01*
X21162Y17406D01*
X21188Y17393D01*
X21192Y17365D01*
X21051Y17224D01*
X21043Y17229D01*
X20947Y17249D01*
X20553D01*
X20457Y17229D01*
X20375Y17175D01*
X20321Y17093D01*
X20301Y16997D01*
Y16603D01*
X20321Y16507D01*
X20375Y16425D01*
X20457Y16371D01*
X20553Y16351D01*
X20947D01*
X21043Y16371D01*
X21125Y16425D01*
X21179Y16507D01*
X21199Y16603D01*
Y16997D01*
X21179Y17093D01*
X21174Y17101D01*
X21285Y17213D01*
X21350Y17186D01*
X21350Y16250D01*
X20250D01*
X20200Y16300D01*
X20200Y32497D01*
X20270Y32511D01*
X20294Y32453D01*
D02*
G37*
G36*
X27653Y32336D02*
X27652Y32336D01*
X27570Y32280D01*
X27515Y32198D01*
X27505Y32150D01*
X27750D01*
Y32100D01*
X27800D01*
Y31855D01*
X27848Y31865D01*
X27930Y31920D01*
X27985Y32002D01*
X27993Y32042D01*
X28063Y32035D01*
Y31136D01*
X27790Y30863D01*
X27770D01*
X27760Y30870D01*
X27721Y30878D01*
X27209D01*
X27171Y30870D01*
X27138Y30848D01*
X27116Y30815D01*
X27108Y30776D01*
X27116Y30738D01*
X27138Y30705D01*
Y30651D01*
X27116Y30618D01*
X27108Y30580D01*
X27116Y30541D01*
X27138Y30508D01*
Y30454D01*
X27116Y30421D01*
X27108Y30383D01*
X27116Y30344D01*
X27138Y30311D01*
Y30257D01*
X27116Y30225D01*
X27108Y30186D01*
X27116Y30147D01*
X27138Y30114D01*
Y30061D01*
X27116Y30028D01*
X27108Y29989D01*
X27116Y29950D01*
X27138Y29917D01*
Y29864D01*
X27116Y29831D01*
X27108Y29792D01*
X27116Y29753D01*
X27138Y29721D01*
Y29667D01*
X27116Y29634D01*
X27108Y29595D01*
X27109Y29593D01*
X27059Y29531D01*
X27013Y29532D01*
X26982Y29579D01*
X26899Y29634D01*
X26852Y29643D01*
Y29398D01*
Y29153D01*
X26899Y29163D01*
X26982Y29218D01*
X27013Y29264D01*
X27059Y29266D01*
X27109Y29203D01*
X27108Y29202D01*
X27116Y29163D01*
X27138Y29130D01*
Y29076D01*
X27116Y29043D01*
X27108Y29005D01*
X27116Y28966D01*
X27138Y28933D01*
Y28879D01*
X27116Y28847D01*
X27108Y28808D01*
X27113Y28783D01*
X27087Y28735D01*
X27069Y28713D01*
X26581D01*
X26553Y28741D01*
Y28750D01*
Y29195D01*
X26613Y29215D01*
X26623Y29217D01*
X26704Y29163D01*
X26752Y29153D01*
Y29398D01*
Y29643D01*
X26704Y29634D01*
X26623Y29580D01*
X26613Y29582D01*
X26553Y29602D01*
Y30300D01*
Y30387D01*
X26558Y30392D01*
X27358Y31192D01*
X27391Y31241D01*
X27403Y31300D01*
Y32352D01*
X27443Y32406D01*
X27646D01*
X27653Y32336D01*
D02*
G37*
G36*
X22837Y43565D02*
X22869Y43516D01*
X22871Y43515D01*
Y43431D01*
X22869Y43429D01*
X22834Y43377D01*
X22822Y43315D01*
X22834Y43254D01*
X22869Y43201D01*
X22871Y43200D01*
Y43116D01*
X22869Y43114D01*
X22834Y43062D01*
X22822Y43000D01*
X22834Y42939D01*
X22855Y42908D01*
X22826Y42840D01*
X22824Y42838D01*
X22717D01*
Y42965D01*
X22203D01*
Y43094D01*
X22255Y43114D01*
X22273Y43118D01*
X22352Y43064D01*
X22400Y43055D01*
Y43300D01*
X22450D01*
Y43350D01*
X22695D01*
X22685Y43398D01*
X22630Y43480D01*
X22625Y43484D01*
X22646Y43554D01*
X22767D01*
X22767Y43554D01*
Y43554D01*
X22830Y43567D01*
X22837Y43565D01*
D02*
G37*
G36*
X28263Y43134D02*
Y39100D01*
X28270Y39067D01*
X28289Y39039D01*
X29306Y38021D01*
X29301Y37997D01*
Y37603D01*
X29321Y37507D01*
X29326Y37499D01*
X28989Y37161D01*
X28970Y37133D01*
X28963Y37100D01*
Y35465D01*
X28893Y35458D01*
X28886Y35498D01*
X28830Y35580D01*
X28748Y35635D01*
X28700Y35645D01*
Y35400D01*
Y35155D01*
X28748Y35164D01*
X28830Y35220D01*
X28886Y35302D01*
X28893Y35342D01*
X28963Y35335D01*
Y34475D01*
X28089Y33601D01*
X28070Y33573D01*
X28063Y33539D01*
Y33261D01*
X28055Y33194D01*
X27902D01*
Y34016D01*
X28087D01*
Y34824D01*
X27923D01*
Y35032D01*
X27938D01*
Y35736D01*
X27938Y35769D01*
X27983Y35769D01*
X28094D01*
Y36154D01*
X27926D01*
Y35834D01*
X27926Y35801D01*
X27881Y35801D01*
X27627D01*
X27596Y35810D01*
X27564Y35855D01*
Y36588D01*
X27549D01*
Y36686D01*
X27734D01*
Y37494D01*
X27083D01*
Y36686D01*
X27243D01*
Y36588D01*
X27228D01*
Y35819D01*
X27243D01*
Y35249D01*
X27142Y35148D01*
X27109Y35099D01*
X27097Y35040D01*
Y34874D01*
X26788D01*
Y34420D01*
Y33966D01*
X27097D01*
Y31363D01*
X26935Y31202D01*
X26900Y31211D01*
X26868Y31233D01*
Y31731D01*
X26860Y31770D01*
X26853Y31780D01*
Y33594D01*
X26848Y33621D01*
X26846Y33627D01*
X26828Y33655D01*
X26582Y33901D01*
X26608Y33966D01*
X26688D01*
Y34420D01*
Y34874D01*
X26407D01*
Y37496D01*
X26510Y37600D01*
X28021D01*
X28056Y37544D01*
Y37140D01*
X28807D01*
Y37459D01*
X28877Y37496D01*
X28944Y37482D01*
X29022Y37498D01*
X29088Y37542D01*
X29132Y37608D01*
X29148Y37686D01*
X29132Y37764D01*
X29088Y37830D01*
X29022Y37875D01*
X28944Y37890D01*
X28866Y37875D01*
X28859Y37870D01*
X28796Y37913D01*
X28804Y37950D01*
X28788Y38028D01*
X28744Y38094D01*
X28678Y38138D01*
X28600Y38154D01*
X28522Y38138D01*
X28512Y38132D01*
X28449Y38174D01*
X28454Y38200D01*
X28438Y38278D01*
X28394Y38344D01*
X28328Y38388D01*
X28250Y38404D01*
X28172Y38388D01*
X28106Y38344D01*
X28062Y38278D01*
X28059Y38267D01*
X26600D01*
X26572Y38261D01*
X26567Y38260D01*
X26539Y38241D01*
X26081Y37784D01*
X26017Y37811D01*
Y38464D01*
X26372Y38819D01*
X26912D01*
X26949Y38749D01*
X26915Y38698D01*
X26905Y38650D01*
X27150D01*
Y38600D01*
X27200D01*
Y38355D01*
X27248Y38365D01*
X27330Y38420D01*
X27406Y38426D01*
X27453Y38395D01*
X27535Y38379D01*
X27701D01*
Y38591D01*
X27751D01*
Y38641D01*
X28170D01*
X28164Y38672D01*
X28118Y38741D01*
X28108Y38832D01*
X28117Y38844D01*
X28129Y38906D01*
X28117Y38968D01*
X28082Y39020D01*
X28080Y39021D01*
Y39105D01*
X28082Y39107D01*
X28117Y39159D01*
X28129Y39221D01*
X28117Y39283D01*
X28082Y39335D01*
X28080Y39336D01*
Y39420D01*
X28082Y39422D01*
X28117Y39474D01*
X28129Y39536D01*
X28117Y39598D01*
X28082Y39650D01*
X28080Y39651D01*
Y39735D01*
X28082Y39737D01*
X28117Y39789D01*
X28129Y39851D01*
X28117Y39913D01*
X28082Y39965D01*
X28080Y39966D01*
Y40050D01*
X28082Y40052D01*
X28117Y40104D01*
X28129Y40166D01*
X28117Y40227D01*
X28082Y40280D01*
X28080Y40281D01*
Y40365D01*
X28082Y40367D01*
X28117Y40419D01*
X28129Y40481D01*
X28117Y40542D01*
X28082Y40595D01*
X28080Y40596D01*
Y40680D01*
X28082Y40682D01*
X28117Y40734D01*
X28129Y40796D01*
X28117Y40857D01*
X28082Y40910D01*
X28080Y40911D01*
Y40995D01*
X28082Y40997D01*
X28117Y41049D01*
X28129Y41111D01*
X28117Y41172D01*
X28082Y41225D01*
X28080Y41226D01*
Y41310D01*
X28082Y41311D01*
X28117Y41364D01*
X28129Y41426D01*
X28117Y41487D01*
X28082Y41540D01*
X28080Y41541D01*
Y41625D01*
X28082Y41626D01*
X28117Y41679D01*
X28129Y41741D01*
X28117Y41802D01*
X28082Y41855D01*
X28080Y41856D01*
Y41940D01*
X28082Y41941D01*
X28117Y41994D01*
X28129Y42056D01*
X28117Y42117D01*
X28082Y42170D01*
X28080Y42171D01*
Y42255D01*
X28082Y42256D01*
X28117Y42309D01*
X28129Y42370D01*
X28117Y42432D01*
X28108Y42445D01*
X28118Y42535D01*
X28164Y42604D01*
X28170Y42635D01*
X27751D01*
Y42735D01*
X28170D01*
X28164Y42767D01*
X28118Y42836D01*
X28108Y42926D01*
X28117Y42939D01*
X28129Y43000D01*
X28117Y43062D01*
X28082Y43114D01*
X28108Y43176D01*
X28123Y43192D01*
X28205Y43192D01*
X28263Y43134D01*
D02*
G37*
G36*
X28823Y44054D02*
Y43941D01*
X28759Y43914D01*
X28361Y44311D01*
X28333Y44330D01*
X28300Y44337D01*
X28178D01*
X28116Y44407D01*
X28118Y44425D01*
X28164Y44494D01*
X28170Y44525D01*
X27751D01*
Y44625D01*
X28214D01*
X28239Y44639D01*
X28823Y44054D01*
D02*
G37*
G36*
X26247Y30237D02*
Y28750D01*
Y28500D01*
Y28463D01*
X26137Y28353D01*
X24363D01*
X24253Y28463D01*
Y30237D01*
X24363Y30347D01*
X26137D01*
X26247Y30237D01*
D02*
G37*
G36*
X22837Y41676D02*
X22869Y41626D01*
X22871Y41625D01*
Y41541D01*
X22869Y41540D01*
X22834Y41487D01*
X22822Y41426D01*
X22834Y41364D01*
X22869Y41311D01*
X22871Y41310D01*
Y41226D01*
X22869Y41225D01*
X22834Y41172D01*
X22822Y41111D01*
X22834Y41049D01*
X22869Y40997D01*
X22871Y40995D01*
Y40911D01*
X22869Y40910D01*
X22834Y40857D01*
X22822Y40796D01*
X22834Y40734D01*
X22869Y40682D01*
X22871Y40680D01*
Y40596D01*
X22869Y40595D01*
X22834Y40542D01*
X22822Y40481D01*
X22834Y40419D01*
X22869Y40367D01*
X22871Y40365D01*
Y40281D01*
X22869Y40280D01*
X22834Y40227D01*
X22822Y40166D01*
X22834Y40104D01*
X22869Y40052D01*
X22871Y40050D01*
Y39966D01*
X22869Y39965D01*
X22834Y39913D01*
X22822Y39851D01*
X22834Y39789D01*
X22869Y39737D01*
X22871Y39735D01*
Y39651D01*
X22869Y39650D01*
X22835Y39599D01*
X22825Y39597D01*
X22767Y39596D01*
X22767Y39596D01*
X22767Y39596D01*
X22603D01*
Y39702D01*
X22630Y39720D01*
X22685Y39802D01*
X22695Y39850D01*
X22450D01*
Y39950D01*
X22695D01*
X22685Y39998D01*
X22630Y40080D01*
X22603Y40098D01*
Y41202D01*
X22630Y41220D01*
X22685Y41302D01*
X22695Y41350D01*
X22450D01*
Y41450D01*
X22695D01*
X22685Y41498D01*
X22630Y41580D01*
X22625Y41584D01*
X22646Y41654D01*
X22767D01*
Y41654D01*
X22831Y41677D01*
X22837Y41676D01*
D02*
G37*
G36*
X24533Y41164D02*
Y41002D01*
X24463Y40981D01*
X24430Y41030D01*
X24348Y41086D01*
X24300Y41095D01*
Y40850D01*
Y40605D01*
X24348Y40615D01*
X24430Y40670D01*
X24463Y40719D01*
X24533Y40698D01*
Y39881D01*
X24469Y39854D01*
X23781Y40541D01*
X23753Y40560D01*
X23720Y40567D01*
X23549D01*
X23531Y40595D01*
X23529Y40596D01*
Y40680D01*
X23531Y40682D01*
X23566Y40734D01*
X23578Y40796D01*
X23566Y40857D01*
X23531Y40910D01*
X23529Y40911D01*
Y40995D01*
X23531Y40997D01*
X23566Y41049D01*
X23578Y41111D01*
X23566Y41172D01*
X23531Y41225D01*
X23529Y41226D01*
Y41310D01*
X23531Y41311D01*
X23566Y41364D01*
X23578Y41426D01*
X23566Y41487D01*
X23531Y41540D01*
X23529Y41541D01*
Y41625D01*
X23531Y41626D01*
X23566Y41679D01*
X23578Y41741D01*
X23566Y41802D01*
X23531Y41855D01*
X23546Y41918D01*
X23589Y41963D01*
X23734D01*
X24533Y41164D01*
D02*
G37*
G36*
X25500Y24655D02*
X25548Y24664D01*
X25625Y24717D01*
X25650Y24711D01*
X25695Y24691D01*
Y21352D01*
X25631Y21326D01*
X25157Y21800D01*
Y24763D01*
X25227Y24784D01*
X25270Y24720D01*
X25352Y24664D01*
X25400Y24655D01*
Y24900D01*
X25500D01*
Y24655D01*
D02*
G37*
G36*
X23992Y28102D02*
X24002Y28092D01*
X24051Y28059D01*
X24110Y28047D01*
X24744D01*
X24764Y27995D01*
X24768Y27977D01*
X24715Y27898D01*
X24705Y27850D01*
X25195D01*
X25185Y27898D01*
X25132Y27977D01*
X25136Y27995D01*
X25156Y28047D01*
X25429D01*
X25483Y27993D01*
Y27521D01*
X25462Y27503D01*
X25413Y27477D01*
X25388Y27482D01*
X25350Y27474D01*
X25317Y27452D01*
X25263D01*
X25230Y27474D01*
X25192Y27482D01*
X25153Y27474D01*
X25120Y27452D01*
X25066D01*
X25033Y27474D01*
X24995Y27482D01*
X24956Y27474D01*
X24923Y27452D01*
X24869D01*
X24837Y27474D01*
X24798Y27482D01*
X24759Y27474D01*
X24712Y27484D01*
X24709Y27488D01*
X24659Y27521D01*
X24651Y27523D01*
Y27125D01*
Y26686D01*
X24666Y26658D01*
X24619Y26611D01*
X24600Y26583D01*
X24593Y26550D01*
Y21588D01*
X24600Y21555D01*
X24619Y21527D01*
X25363Y20782D01*
Y19192D01*
X25360Y19191D01*
X25276Y19156D01*
X25204Y19101D01*
X25148Y19029D01*
X25114Y18945D01*
X25102Y18855D01*
Y18245D01*
X25114Y18155D01*
X25148Y18071D01*
X25204Y17999D01*
X25276Y17944D01*
X25333Y17920D01*
X25319Y17850D01*
X24581D01*
X24567Y17920D01*
X24624Y17944D01*
X24696Y17999D01*
X24752Y18071D01*
X24786Y18155D01*
X24798Y18245D01*
Y18855D01*
X24786Y18945D01*
X24752Y19029D01*
X24696Y19101D01*
X24624Y19156D01*
X24540Y19191D01*
X24537Y19192D01*
Y20950D01*
X24531Y20978D01*
X24530Y20983D01*
X24511Y21011D01*
X23937Y21586D01*
Y22417D01*
X23994Y22456D01*
X24038Y22522D01*
X24054Y22600D01*
X24038Y22678D01*
X23994Y22744D01*
X23928Y22788D01*
X23850Y22804D01*
X23772Y22788D01*
X23706Y22744D01*
X23662Y22678D01*
X23646Y22600D01*
X23662Y22522D01*
X23706Y22456D01*
X23763Y22417D01*
Y21550D01*
X23770Y21517D01*
X23789Y21489D01*
X24363Y20914D01*
Y19192D01*
X24360Y19191D01*
X24276Y19156D01*
X24204Y19101D01*
X24148Y19029D01*
X24114Y18945D01*
X24102Y18855D01*
Y18245D01*
X24114Y18155D01*
X24148Y18071D01*
X24204Y17999D01*
X24276Y17944D01*
X24333Y17920D01*
X24319Y17850D01*
X23699D01*
X23675Y17920D01*
X23732Y17963D01*
X23795Y18046D01*
X23835Y18142D01*
X23849Y18245D01*
Y18500D01*
X23051D01*
Y18245D01*
X23065Y18142D01*
X23105Y18046D01*
X23168Y17963D01*
X23225Y17920D01*
X23201Y17850D01*
X21387D01*
Y18144D01*
X21921Y18679D01*
X21940Y18707D01*
X21947Y18740D01*
Y21125D01*
X24465Y23644D01*
X24484Y23672D01*
X24491Y23705D01*
Y26679D01*
X24507Y26695D01*
X24551Y26719D01*
Y27125D01*
Y27523D01*
X24543Y27521D01*
X24493Y27488D01*
X24490Y27484D01*
X24443Y27474D01*
X24404Y27482D01*
X24365Y27474D01*
X24333Y27452D01*
X24279D01*
X24246Y27474D01*
X24207Y27482D01*
X24169Y27474D01*
X24136Y27452D01*
X24082D01*
X24049Y27474D01*
X24010Y27482D01*
X23972Y27474D01*
X23939Y27452D01*
X23885D01*
X23857Y27471D01*
X23852Y27477D01*
X23835Y27549D01*
X23858Y27572D01*
X23891Y27621D01*
X23903Y27680D01*
Y28109D01*
X23973Y28130D01*
X23992Y28102D01*
D02*
G37*
G36*
X23924Y33474D02*
Y33081D01*
X23854Y33048D01*
X23798Y33085D01*
X23750Y33095D01*
Y32850D01*
X23700D01*
Y32800D01*
X23434D01*
X23400Y32766D01*
Y32450D01*
X23667D01*
Y32530D01*
X23700Y32595D01*
X23798Y32615D01*
X23854Y32652D01*
X23924Y32619D01*
Y31861D01*
X23854Y31824D01*
X23852Y31825D01*
X23814Y31832D01*
X23775Y31825D01*
X23742Y31803D01*
X23720Y31770D01*
X23712Y31731D01*
Y31219D01*
X23720Y31181D01*
X23727Y31170D01*
Y31093D01*
X23732Y31066D01*
X23729Y31061D01*
X23654Y31045D01*
X23503Y31196D01*
Y31435D01*
X23617D01*
Y32006D01*
X23620Y32009D01*
X23667Y32054D01*
X23667Y32054D01*
X23667D01*
X23667Y32054D01*
Y32350D01*
X23033D01*
Y32054D01*
X23033D01*
X23083Y32027D01*
Y31435D01*
X23197D01*
Y31133D01*
X23209Y31074D01*
X23242Y31025D01*
X23319Y30948D01*
X23290Y30878D01*
X22903D01*
Y32544D01*
X22969Y32610D01*
X23033Y32584D01*
Y32450D01*
X23300D01*
Y32746D01*
X23196D01*
X23169Y32811D01*
X23859Y33501D01*
X23924Y33474D01*
D02*
G37*
G36*
X30300Y36497D02*
X30300Y16300D01*
X30250Y16250D01*
X29200D01*
X29200Y17136D01*
X29265Y17163D01*
X29326Y17101D01*
X29321Y17093D01*
X29301Y16997D01*
Y16603D01*
X29321Y16507D01*
X29375Y16425D01*
X29457Y16371D01*
X29553Y16351D01*
X29947D01*
X30043Y16371D01*
X30125Y16425D01*
X30179Y16507D01*
X30199Y16603D01*
Y16997D01*
X30179Y17093D01*
X30125Y17175D01*
X30043Y17229D01*
X29947Y17249D01*
X29553D01*
X29457Y17229D01*
X29449Y17224D01*
X29321Y17351D01*
X29327Y17379D01*
X29328Y17381D01*
X29404Y17406D01*
X29457Y17371D01*
X29553Y17351D01*
X29947D01*
X30043Y17371D01*
X30125Y17425D01*
X30179Y17507D01*
X30199Y17603D01*
Y17997D01*
X30179Y18093D01*
X30125Y18175D01*
X30043Y18229D01*
X29947Y18249D01*
X29553D01*
X29457Y18229D01*
X29383Y18180D01*
X29356Y18184D01*
X29320Y18247D01*
X29449Y18376D01*
X29457Y18371D01*
X29553Y18351D01*
X29947D01*
X30043Y18371D01*
X30125Y18425D01*
X30179Y18507D01*
X30199Y18603D01*
Y18997D01*
X30179Y19093D01*
X30125Y19175D01*
X30043Y19229D01*
X29947Y19249D01*
X29553D01*
X29457Y19229D01*
X29375Y19175D01*
X29321Y19093D01*
X29301Y18997D01*
Y18603D01*
X29321Y18507D01*
X29326Y18499D01*
X29114Y18287D01*
X28651D01*
X28624Y18351D01*
X29061Y18789D01*
X29080Y18817D01*
X29081Y18822D01*
X29087Y18850D01*
Y19014D01*
X29449Y19376D01*
X29457Y19371D01*
X29553Y19351D01*
X29947D01*
X30043Y19371D01*
X30125Y19425D01*
X30179Y19507D01*
X30199Y19603D01*
Y19997D01*
X30179Y20093D01*
X30125Y20175D01*
X30043Y20229D01*
X29947Y20249D01*
X29553D01*
X29457Y20229D01*
X29375Y20175D01*
X29321Y20093D01*
X29301Y19997D01*
Y19603D01*
X29321Y19507D01*
X29326Y19499D01*
X28939Y19111D01*
X28920Y19083D01*
X28913Y19050D01*
Y18886D01*
X28434Y18407D01*
X28345D01*
X28295Y18455D01*
Y19023D01*
X28561Y19289D01*
X28574Y19308D01*
X28580Y19317D01*
X28587Y19350D01*
Y20000D01*
X28580Y20033D01*
X28561Y20061D01*
X28261Y20361D01*
X28233Y20380D01*
X28200Y20387D01*
X27992D01*
X27987Y20457D01*
X28040Y20464D01*
X28124Y20498D01*
X28196Y20554D01*
X28252Y20626D01*
X28286Y20710D01*
X28298Y20800D01*
X28286Y20890D01*
X28252Y20974D01*
X28196Y21046D01*
X28124Y21102D01*
X28040Y21136D01*
X27950Y21148D01*
X27860Y21136D01*
X27776Y21102D01*
X27704Y21046D01*
X27648Y20974D01*
X27614Y20890D01*
X27613Y20887D01*
X27286D01*
X26537Y21636D01*
Y25867D01*
X26594Y25906D01*
X26613Y25934D01*
X26683Y25913D01*
Y22430D01*
X26690Y22397D01*
X26709Y22369D01*
X27339Y21739D01*
X27367Y21720D01*
X27400Y21713D01*
X27613D01*
X27614Y21710D01*
X27648Y21626D01*
X27704Y21554D01*
X27776Y21498D01*
X27860Y21464D01*
X27950Y21452D01*
X28040Y21464D01*
X28124Y21498D01*
X28196Y21554D01*
X28252Y21626D01*
X28286Y21710D01*
X28298Y21800D01*
X28286Y21890D01*
X28252Y21974D01*
X28196Y22046D01*
X28161Y22073D01*
X28185Y22143D01*
X28284D01*
X29326Y21101D01*
X29321Y21093D01*
X29301Y20997D01*
Y20603D01*
X29321Y20507D01*
X29375Y20425D01*
X29457Y20371D01*
X29553Y20351D01*
X29947D01*
X30043Y20371D01*
X30125Y20425D01*
X30179Y20507D01*
X30199Y20603D01*
Y20997D01*
X30179Y21093D01*
X30125Y21175D01*
X30043Y21229D01*
X29947Y21249D01*
X29553D01*
X29457Y21229D01*
X29449Y21224D01*
X28474Y22199D01*
X28501Y22263D01*
X29164D01*
X29326Y22101D01*
X29321Y22093D01*
X29301Y21997D01*
Y21603D01*
X29321Y21507D01*
X29375Y21425D01*
X29457Y21371D01*
X29553Y21351D01*
X29947D01*
X30043Y21371D01*
X30125Y21425D01*
X30179Y21507D01*
X30199Y21603D01*
Y21997D01*
X30179Y22093D01*
X30125Y22175D01*
X30043Y22229D01*
X29947Y22249D01*
X29553D01*
X29457Y22229D01*
X29449Y22224D01*
X29261Y22411D01*
X29233Y22430D01*
X29200Y22437D01*
X28241D01*
X28217Y22507D01*
X28232Y22518D01*
X28295Y22601D01*
X28335Y22697D01*
X28342Y22750D01*
X27558D01*
X27565Y22697D01*
X27605Y22601D01*
X27668Y22518D01*
X27683Y22507D01*
X27659Y22437D01*
X27246D01*
X27117Y22566D01*
Y26320D01*
X27110Y26353D01*
X27091Y26381D01*
X26853Y26620D01*
Y26820D01*
X26860Y26830D01*
X26868Y26869D01*
Y27381D01*
X26860Y27419D01*
X26849Y27436D01*
X26903Y27481D01*
X27797Y26587D01*
Y24110D01*
X27776Y24102D01*
X27704Y24046D01*
X27648Y23974D01*
X27614Y23890D01*
X27602Y23800D01*
X27614Y23710D01*
X27648Y23626D01*
X27704Y23554D01*
X27776Y23498D01*
X27860Y23464D01*
X27950Y23452D01*
X28040Y23464D01*
X28124Y23498D01*
X28196Y23554D01*
X28252Y23626D01*
X28286Y23710D01*
X28298Y23800D01*
X28286Y23890D01*
X28252Y23974D01*
X28196Y24046D01*
X28124Y24102D01*
X28103Y24110D01*
Y26650D01*
X28091Y26709D01*
X28058Y26758D01*
X27150Y27666D01*
X27189Y27727D01*
X27209Y27722D01*
X27721D01*
X27760Y27730D01*
X27770Y27737D01*
X27841D01*
X28317Y27262D01*
Y24147D01*
X28323Y24114D01*
X28342Y24085D01*
X29326Y23101D01*
X29321Y23093D01*
X29301Y22997D01*
Y22603D01*
X29321Y22507D01*
X29375Y22425D01*
X29457Y22371D01*
X29553Y22351D01*
X29947D01*
X30043Y22371D01*
X30125Y22425D01*
X30179Y22507D01*
X30199Y22603D01*
Y22997D01*
X30179Y23093D01*
X30125Y23175D01*
X30043Y23229D01*
X29947Y23249D01*
X29553D01*
X29457Y23229D01*
X29449Y23224D01*
X28490Y24183D01*
Y24846D01*
X28555Y24873D01*
X29326Y24101D01*
X29321Y24093D01*
X29301Y23997D01*
Y23603D01*
X29321Y23507D01*
X29375Y23425D01*
X29457Y23371D01*
X29553Y23351D01*
X29947D01*
X30043Y23371D01*
X30125Y23425D01*
X30179Y23507D01*
X30199Y23603D01*
Y23997D01*
X30179Y24093D01*
X30125Y24175D01*
X30043Y24229D01*
X29947Y24249D01*
X29553D01*
X29457Y24229D01*
X29449Y24224D01*
X28617Y25056D01*
Y25719D01*
X28681Y25746D01*
X29326Y25101D01*
X29321Y25093D01*
X29301Y24997D01*
Y24603D01*
X29321Y24507D01*
X29375Y24425D01*
X29457Y24371D01*
X29553Y24351D01*
X29947D01*
X30043Y24371D01*
X30125Y24425D01*
X30179Y24507D01*
X30199Y24603D01*
Y24997D01*
X30179Y25093D01*
X30125Y25175D01*
X30043Y25229D01*
X29947Y25249D01*
X29553D01*
X29457Y25229D01*
X29449Y25224D01*
X28737Y25936D01*
Y26599D01*
X28801Y26626D01*
X29326Y26101D01*
X29321Y26093D01*
X29301Y25997D01*
Y25603D01*
X29321Y25507D01*
X29375Y25425D01*
X29457Y25371D01*
X29553Y25351D01*
X29947D01*
X30043Y25371D01*
X30125Y25425D01*
X30179Y25507D01*
X30199Y25603D01*
Y25997D01*
X30179Y26093D01*
X30125Y26175D01*
X30043Y26229D01*
X29947Y26249D01*
X29553D01*
X29457Y26229D01*
X29449Y26224D01*
X28905Y26767D01*
X28908Y26787D01*
X28922Y26799D01*
X28985Y26830D01*
X29010Y26825D01*
Y27070D01*
X29110D01*
Y26825D01*
X29158Y26834D01*
X29231Y26884D01*
X29269Y26874D01*
X29301Y26855D01*
Y26603D01*
X29321Y26507D01*
X29375Y26425D01*
X29457Y26371D01*
X29553Y26351D01*
X29947D01*
X30043Y26371D01*
X30125Y26425D01*
X30179Y26507D01*
X30199Y26603D01*
Y26997D01*
X30179Y27093D01*
X30125Y27175D01*
X30043Y27229D01*
X29947Y27249D01*
X29553D01*
X29457Y27229D01*
X29449Y27224D01*
X29346Y27327D01*
X29345Y27364D01*
X29364Y27379D01*
X29423Y27393D01*
X29457Y27371D01*
X29553Y27351D01*
X29947D01*
X30043Y27371D01*
X30125Y27425D01*
X30179Y27507D01*
X30199Y27603D01*
Y27997D01*
X30179Y28093D01*
X30125Y28175D01*
X30043Y28229D01*
X29947Y28249D01*
X29553D01*
X29457Y28229D01*
X29419Y28204D01*
X28976Y28647D01*
X28993Y28694D01*
X29008Y28713D01*
X29301D01*
Y28603D01*
X29321Y28507D01*
X29375Y28425D01*
X29457Y28371D01*
X29553Y28351D01*
X29947D01*
X30043Y28371D01*
X30125Y28425D01*
X30179Y28507D01*
X30199Y28603D01*
Y28997D01*
X30179Y29093D01*
X30125Y29175D01*
X30043Y29229D01*
X29947Y29249D01*
X29553D01*
X29457Y29229D01*
X29375Y29175D01*
X29321Y29093D01*
X29301Y28997D01*
Y28887D01*
X29036D01*
X28661Y29261D01*
X28633Y29280D01*
X28600Y29287D01*
X27910D01*
X27894Y29305D01*
X27869Y29348D01*
X27465D01*
Y29448D01*
X27871D01*
X27895Y29492D01*
X27911Y29509D01*
X28300D01*
X28333Y29515D01*
X28361Y29534D01*
X28540Y29713D01*
X28985D01*
X28992Y29643D01*
X28952Y29636D01*
X28870Y29580D01*
X28814Y29498D01*
X28805Y29450D01*
X29050D01*
Y29400D01*
X29100D01*
Y29155D01*
X29148Y29165D01*
X29230Y29220D01*
X29286Y29302D01*
X29305Y29400D01*
X29304Y29406D01*
X29370Y29434D01*
X29375Y29425D01*
X29457Y29371D01*
X29553Y29351D01*
X29947D01*
X30043Y29371D01*
X30125Y29425D01*
X30179Y29507D01*
X30199Y29603D01*
Y29997D01*
X30179Y30093D01*
X30125Y30175D01*
X30043Y30229D01*
X29947Y30249D01*
X29553D01*
X29457Y30229D01*
X29375Y30175D01*
X29321Y30093D01*
X29301Y29997D01*
Y29887D01*
X28558D01*
X28529Y29957D01*
X29231Y30659D01*
X29301Y30630D01*
Y30603D01*
X29321Y30507D01*
X29375Y30425D01*
X29457Y30371D01*
X29553Y30351D01*
X29947D01*
X30043Y30371D01*
X30125Y30425D01*
X30179Y30507D01*
X30199Y30603D01*
Y30997D01*
X30179Y31093D01*
X30125Y31175D01*
X30043Y31229D01*
X29947Y31249D01*
X29553D01*
X29457Y31229D01*
X29375Y31175D01*
X29321Y31093D01*
X29301Y30997D01*
Y30887D01*
X29250D01*
X29217Y30880D01*
X29189Y30861D01*
X29003Y30676D01*
X28956Y30693D01*
X28937Y30708D01*
Y31364D01*
X29231Y31659D01*
X29301Y31630D01*
Y31603D01*
X29321Y31507D01*
X29375Y31425D01*
X29457Y31371D01*
X29553Y31351D01*
X29947D01*
X30043Y31371D01*
X30125Y31425D01*
X30179Y31507D01*
X30199Y31603D01*
Y31997D01*
X30179Y32093D01*
X30125Y32175D01*
X30043Y32229D01*
X29947Y32249D01*
X29553D01*
X29457Y32229D01*
X29375Y32175D01*
X29321Y32093D01*
X29301Y31997D01*
Y31887D01*
X29250D01*
X29222Y31881D01*
X29217Y31880D01*
X29189Y31861D01*
X28789Y31461D01*
X28770Y31433D01*
X28763Y31400D01*
Y30736D01*
X28694Y30667D01*
X28657Y30677D01*
X28627Y30698D01*
Y32085D01*
X28654Y32088D01*
Y32112D01*
X28627Y32115D01*
Y32343D01*
X28644Y32406D01*
X28846D01*
X28853Y32336D01*
X28852Y32336D01*
X28770Y32280D01*
X28714Y32198D01*
X28705Y32150D01*
X29195D01*
X29186Y32198D01*
X29130Y32280D01*
X29048Y32336D01*
X29047Y32336D01*
X29054Y32406D01*
X29256D01*
Y32447D01*
X29269Y32458D01*
X29363Y32443D01*
X29375Y32425D01*
X29457Y32371D01*
X29553Y32351D01*
X29947D01*
X30043Y32371D01*
X30125Y32425D01*
X30179Y32507D01*
X30199Y32603D01*
Y32997D01*
X30179Y33093D01*
X30125Y33175D01*
X30043Y33229D01*
X29947Y33249D01*
X29553D01*
X29457Y33229D01*
X29375Y33175D01*
X29363Y33157D01*
X29269Y33142D01*
X29256Y33153D01*
Y33194D01*
X28759D01*
X28732Y33259D01*
X29186Y33713D01*
X29301D01*
Y33603D01*
X29321Y33507D01*
X29375Y33425D01*
X29457Y33371D01*
X29553Y33351D01*
X29947D01*
X30043Y33371D01*
X30125Y33425D01*
X30179Y33507D01*
X30199Y33603D01*
Y33997D01*
X30179Y34093D01*
X30125Y34175D01*
X30043Y34229D01*
X29947Y34249D01*
X29553D01*
X29457Y34229D01*
X29375Y34175D01*
X29321Y34093D01*
X29301Y33997D01*
Y33887D01*
X29150D01*
X29122Y33881D01*
X29117Y33880D01*
X29089Y33861D01*
X28567Y33339D01*
X28504Y33364D01*
X28498Y33425D01*
X29449Y34376D01*
X29457Y34371D01*
X29553Y34351D01*
X29947D01*
X30043Y34371D01*
X30125Y34425D01*
X30179Y34507D01*
X30199Y34603D01*
Y34997D01*
X30179Y35093D01*
X30125Y35175D01*
X30043Y35229D01*
X29947Y35249D01*
X29553D01*
X29457Y35229D01*
X29375Y35175D01*
X29327Y35102D01*
X29291Y35103D01*
X29257Y35114D01*
Y35184D01*
X29449Y35376D01*
X29457Y35371D01*
X29553Y35351D01*
X29947D01*
X30043Y35371D01*
X30125Y35425D01*
X30179Y35507D01*
X30199Y35603D01*
Y35997D01*
X30179Y36093D01*
X30125Y36175D01*
X30043Y36229D01*
X29993Y36239D01*
X29996Y36310D01*
X30024Y36314D01*
X30097Y36344D01*
X30159Y36391D01*
X30206Y36453D01*
X30230Y36511D01*
X30300Y36497D01*
D02*
G37*
G36*
Y48350D02*
Y37103D01*
X30230Y37089D01*
X30206Y37147D01*
X30159Y37209D01*
X30097Y37256D01*
X30024Y37286D01*
X29996Y37290D01*
X29993Y37361D01*
X30043Y37371D01*
X30125Y37425D01*
X30179Y37507D01*
X30199Y37603D01*
Y37997D01*
X30179Y38093D01*
X30125Y38175D01*
X30043Y38229D01*
X29947Y38249D01*
X29553D01*
X29457Y38229D01*
X29389Y38184D01*
X28437Y39136D01*
Y39799D01*
X28501Y39826D01*
X29306Y39021D01*
X29301Y38997D01*
Y38603D01*
X29321Y38507D01*
X29375Y38425D01*
X29457Y38371D01*
X29553Y38351D01*
X29947D01*
X30043Y38371D01*
X30125Y38425D01*
X30179Y38507D01*
X30199Y38603D01*
Y38997D01*
X30179Y39093D01*
X30125Y39175D01*
X30043Y39229D01*
X29947Y39249D01*
X29553D01*
X29457Y39229D01*
X29389Y39184D01*
X28577Y39996D01*
Y40659D01*
X28641Y40686D01*
X29306Y40021D01*
X29301Y39997D01*
Y39603D01*
X29321Y39507D01*
X29375Y39425D01*
X29457Y39371D01*
X29553Y39351D01*
X29947D01*
X30043Y39371D01*
X30125Y39425D01*
X30179Y39507D01*
X30199Y39603D01*
Y39997D01*
X30179Y40093D01*
X30125Y40175D01*
X30043Y40229D01*
X29947Y40249D01*
X29553D01*
X29457Y40229D01*
X29389Y40184D01*
X28717Y40856D01*
Y41569D01*
X28781Y41596D01*
X29315Y41063D01*
X29301Y40997D01*
Y40603D01*
X29321Y40507D01*
X29375Y40425D01*
X29457Y40371D01*
X29553Y40351D01*
X29947D01*
X30043Y40371D01*
X30125Y40425D01*
X30179Y40507D01*
X30199Y40603D01*
Y40997D01*
X30179Y41093D01*
X30125Y41175D01*
X30043Y41229D01*
X29947Y41249D01*
X29553D01*
X29457Y41229D01*
X29419Y41204D01*
X28857Y41766D01*
Y42479D01*
X28921Y42506D01*
X29326Y42101D01*
X29321Y42093D01*
X29301Y41997D01*
Y41603D01*
X29321Y41507D01*
X29375Y41425D01*
X29457Y41371D01*
X29553Y41351D01*
X29947D01*
X30043Y41371D01*
X30125Y41425D01*
X30179Y41507D01*
X30199Y41603D01*
Y41997D01*
X30179Y42093D01*
X30125Y42175D01*
X30043Y42229D01*
X29947Y42249D01*
X29553D01*
X29457Y42229D01*
X29449Y42224D01*
X28997Y42676D01*
Y43289D01*
X29061Y43316D01*
X29315Y43063D01*
X29301Y42997D01*
Y42603D01*
X29321Y42507D01*
X29375Y42425D01*
X29457Y42371D01*
X29553Y42351D01*
X29947D01*
X30043Y42371D01*
X30125Y42425D01*
X30179Y42507D01*
X30199Y42603D01*
Y42997D01*
X30179Y43093D01*
X30125Y43175D01*
X30043Y43229D01*
X29947Y43249D01*
X29553D01*
X29457Y43229D01*
X29419Y43204D01*
X29137Y43486D01*
Y44242D01*
X29156Y44257D01*
X29203Y44274D01*
X29346Y44131D01*
X29321Y44093D01*
X29301Y43997D01*
Y43603D01*
X29321Y43507D01*
X29375Y43425D01*
X29457Y43371D01*
X29553Y43351D01*
X29947D01*
X30043Y43371D01*
X30125Y43425D01*
X30179Y43507D01*
X30199Y43603D01*
Y43997D01*
X30179Y44093D01*
X30125Y44175D01*
X30043Y44229D01*
X29947Y44249D01*
X29553D01*
X29487Y44235D01*
X29394Y44328D01*
X29439Y44382D01*
X29457Y44371D01*
X29553Y44351D01*
X29947D01*
X30043Y44371D01*
X30125Y44425D01*
X30179Y44507D01*
X30199Y44603D01*
Y44997D01*
X30179Y45093D01*
X30125Y45175D01*
X30043Y45229D01*
X29947Y45249D01*
X29553D01*
X29457Y45229D01*
X29375Y45175D01*
X29321Y45093D01*
X29301Y44997D01*
Y44897D01*
X29231Y44891D01*
X28226Y45896D01*
X28198Y45915D01*
X28165Y45922D01*
X28155D01*
X28115Y45987D01*
X28118Y46000D01*
X28164Y46069D01*
X28170Y46100D01*
X27751D01*
Y46150D01*
X27701D01*
Y46362D01*
X27535D01*
X27453Y46346D01*
X27389Y46303D01*
X27298D01*
X27280Y46330D01*
X27198Y46385D01*
X27150Y46395D01*
Y46150D01*
Y45905D01*
X27198Y45915D01*
X27280Y45970D01*
X27298Y45997D01*
X27375D01*
X27378Y45994D01*
X27390Y45974D01*
X27394Y45909D01*
X27386Y45897D01*
X27373Y45835D01*
X27386Y45773D01*
X27421Y45721D01*
X27422Y45720D01*
Y45635D01*
X27421Y45634D01*
X27386Y45582D01*
X27373Y45520D01*
X27386Y45458D01*
X27421Y45406D01*
X27422Y45405D01*
Y45321D01*
X27421Y45319D01*
X27386Y45267D01*
X27373Y45205D01*
X27386Y45143D01*
X27421Y45091D01*
X27422Y45090D01*
Y45006D01*
X27421Y45004D01*
X27386Y44952D01*
X27373Y44890D01*
X27386Y44828D01*
X27394Y44816D01*
X27390Y44752D01*
X27378Y44731D01*
X27375Y44728D01*
X27282D01*
X27280Y44730D01*
X27198Y44785D01*
X27150Y44795D01*
Y44550D01*
Y44305D01*
X27198Y44314D01*
X27280Y44370D01*
X27309Y44413D01*
X27327Y44415D01*
X27392Y44366D01*
X27394Y44335D01*
X27386Y44322D01*
X27373Y44260D01*
X27386Y44198D01*
X27421Y44146D01*
X27422Y44145D01*
Y44061D01*
X27421Y44059D01*
X27386Y44007D01*
X27373Y43945D01*
X27386Y43884D01*
X27421Y43831D01*
X27422Y43830D01*
Y43746D01*
X27421Y43744D01*
X27386Y43692D01*
X27373Y43630D01*
X27386Y43569D01*
X27421Y43516D01*
X27422Y43515D01*
Y43431D01*
X27421Y43429D01*
X27386Y43377D01*
X27373Y43315D01*
X27386Y43254D01*
X27421Y43201D01*
X27422Y43200D01*
Y43116D01*
X27421Y43114D01*
X27386Y43062D01*
X27373Y43000D01*
X27386Y42939D01*
X27394Y42926D01*
X27390Y42862D01*
X27378Y42841D01*
X27375Y42838D01*
X27308D01*
X27280Y42880D01*
X27198Y42936D01*
X27150Y42945D01*
Y42700D01*
X27100D01*
Y42650D01*
X26855D01*
X26865Y42602D01*
X26915Y42527D01*
X26906Y42494D01*
X26887Y42457D01*
X26340D01*
X26307Y42451D01*
X26279Y42432D01*
X24901Y41054D01*
X24837Y41081D01*
Y41390D01*
X24831Y41418D01*
X24830Y41423D01*
X24811Y41451D01*
X23831Y42432D01*
X23803Y42451D01*
X23770Y42457D01*
X23549D01*
X23531Y42485D01*
X23529Y42486D01*
Y42570D01*
X23531Y42571D01*
X23566Y42624D01*
X23578Y42685D01*
X23566Y42747D01*
X23531Y42800D01*
X23529Y42801D01*
Y42885D01*
X23531Y42886D01*
X23566Y42939D01*
X23578Y43000D01*
X23566Y43062D01*
X23531Y43114D01*
X23540Y43179D01*
X23587Y43229D01*
X23665D01*
X23699Y43235D01*
X23727Y43254D01*
X24661Y44189D01*
X24680Y44217D01*
X24681Y44222D01*
X24687Y44250D01*
Y46166D01*
X25134Y46613D01*
X28814D01*
X29326Y46101D01*
X29321Y46093D01*
X29301Y45997D01*
Y45603D01*
X29321Y45507D01*
X29375Y45425D01*
X29457Y45371D01*
X29553Y45351D01*
X29947D01*
X30043Y45371D01*
X30125Y45425D01*
X30179Y45507D01*
X30199Y45603D01*
Y45997D01*
X30179Y46093D01*
X30125Y46175D01*
X30043Y46229D01*
X29947Y46249D01*
X29553D01*
X29457Y46229D01*
X29449Y46224D01*
X29004Y46669D01*
X29031Y46733D01*
X29301D01*
Y46603D01*
X29321Y46507D01*
X29375Y46425D01*
X29457Y46371D01*
X29553Y46351D01*
X29947D01*
X30043Y46371D01*
X30125Y46425D01*
X30179Y46507D01*
X30199Y46603D01*
Y46997D01*
X30179Y47093D01*
X30125Y47175D01*
X30043Y47229D01*
X29947Y47249D01*
X29553D01*
X29457Y47229D01*
X29375Y47175D01*
X29321Y47093D01*
X29301Y46997D01*
Y46907D01*
X29071D01*
X29044Y46971D01*
X29449Y47376D01*
X29457Y47371D01*
X29553Y47351D01*
X29947D01*
X30043Y47371D01*
X30125Y47425D01*
X30179Y47507D01*
X30199Y47603D01*
Y47997D01*
X30179Y48093D01*
X30125Y48175D01*
X30043Y48229D01*
X29947Y48249D01*
X29553D01*
X29457Y48229D01*
X29375Y48175D01*
X29321Y48093D01*
X29301Y47997D01*
Y47603D01*
X29321Y47507D01*
X29326Y47499D01*
X28854Y47027D01*
X24999D01*
X24965Y47020D01*
X24956Y47014D01*
X24937Y47001D01*
X24391Y46455D01*
X24327Y46482D01*
Y46589D01*
X24320Y46622D01*
X24301Y46650D01*
X23760Y47191D01*
X23732Y47210D01*
X23699Y47217D01*
X21556D01*
X21194Y47579D01*
X21199Y47603D01*
Y47997D01*
X21179Y48093D01*
X21125Y48175D01*
X21043Y48229D01*
X20947Y48249D01*
X20553D01*
X20457Y48229D01*
X20375Y48175D01*
X20321Y48093D01*
X20301Y47997D01*
Y47603D01*
X20321Y47507D01*
X20375Y47425D01*
X20457Y47371D01*
X20553Y47351D01*
X20947D01*
X21043Y47371D01*
X21111Y47416D01*
X21459Y47069D01*
X21487Y47050D01*
X21520Y47043D01*
X21870D01*
X21897Y46979D01*
X21805Y46887D01*
X21199D01*
Y46997D01*
X21179Y47093D01*
X21125Y47175D01*
X21043Y47229D01*
X20947Y47249D01*
X20553D01*
X20457Y47229D01*
X20375Y47175D01*
X20321Y47093D01*
X20301Y46997D01*
Y46603D01*
X20321Y46507D01*
X20375Y46425D01*
X20457Y46371D01*
X20553Y46351D01*
X20947D01*
X21043Y46371D01*
X21125Y46425D01*
X21179Y46507D01*
X21199Y46603D01*
Y46713D01*
X21710D01*
X21737Y46649D01*
X21564Y46476D01*
X21545Y46448D01*
X21538Y46414D01*
Y46111D01*
X21314Y45887D01*
X21199D01*
Y45997D01*
X21179Y46093D01*
X21125Y46175D01*
X21043Y46229D01*
X20947Y46249D01*
X20553D01*
X20457Y46229D01*
X20375Y46175D01*
X20321Y46093D01*
X20301Y45997D01*
Y45603D01*
X20321Y45507D01*
X20375Y45425D01*
X20457Y45371D01*
X20553Y45351D01*
X20947D01*
X21043Y45371D01*
X21125Y45425D01*
X21179Y45507D01*
X21199Y45603D01*
Y45713D01*
X21350D01*
X21383Y45720D01*
X21411Y45739D01*
X21594Y45921D01*
X21658Y45894D01*
Y45281D01*
X21269Y44891D01*
X21199Y44897D01*
Y44997D01*
X21179Y45093D01*
X21125Y45175D01*
X21043Y45229D01*
X20947Y45249D01*
X20553D01*
X20457Y45229D01*
X20375Y45175D01*
X20321Y45093D01*
X20301Y44997D01*
Y44603D01*
X20321Y44507D01*
X20375Y44425D01*
X20457Y44371D01*
X20553Y44351D01*
X20947D01*
X21043Y44371D01*
X21125Y44425D01*
X21179Y44507D01*
X21199Y44603D01*
Y44713D01*
X21300D01*
X21333Y44720D01*
X21361Y44739D01*
X21714Y45091D01*
X21778Y45064D01*
Y44251D01*
X21414Y43887D01*
X21199D01*
Y43997D01*
X21179Y44093D01*
X21125Y44175D01*
X21043Y44229D01*
X20947Y44249D01*
X20553D01*
X20457Y44229D01*
X20375Y44175D01*
X20321Y44093D01*
X20301Y43997D01*
Y43603D01*
X20321Y43507D01*
X20375Y43425D01*
X20457Y43371D01*
X20553Y43351D01*
X20947D01*
X21043Y43371D01*
X21125Y43425D01*
X21179Y43507D01*
X21199Y43603D01*
Y43713D01*
X21450D01*
X21483Y43720D01*
X21511Y43739D01*
X21832Y44060D01*
X21897Y44033D01*
Y41967D01*
X21832Y41940D01*
X21194Y42579D01*
X21199Y42603D01*
Y42997D01*
X21179Y43093D01*
X21125Y43175D01*
X21043Y43229D01*
X20947Y43249D01*
X20553D01*
X20457Y43229D01*
X20375Y43175D01*
X20321Y43093D01*
X20301Y42997D01*
Y42603D01*
X20321Y42507D01*
X20375Y42425D01*
X20457Y42371D01*
X20553Y42351D01*
X20947D01*
X21043Y42371D01*
X21111Y42416D01*
X21763Y41764D01*
Y41101D01*
X21699Y41074D01*
X21194Y41579D01*
X21199Y41603D01*
Y41997D01*
X21179Y42093D01*
X21125Y42175D01*
X21043Y42229D01*
X20947Y42249D01*
X20553D01*
X20457Y42229D01*
X20375Y42175D01*
X20321Y42093D01*
X20301Y41997D01*
Y41603D01*
X20321Y41507D01*
X20375Y41425D01*
X20457Y41371D01*
X20553Y41351D01*
X20947D01*
X21043Y41371D01*
X21111Y41416D01*
X21623Y40904D01*
Y40241D01*
X21559Y40214D01*
X21194Y40579D01*
X21199Y40603D01*
Y40997D01*
X21179Y41093D01*
X21125Y41175D01*
X21043Y41229D01*
X20947Y41249D01*
X20553D01*
X20457Y41229D01*
X20375Y41175D01*
X20321Y41093D01*
X20301Y40997D01*
Y40603D01*
X20321Y40507D01*
X20375Y40425D01*
X20457Y40371D01*
X20553Y40351D01*
X20947D01*
X21043Y40371D01*
X21111Y40416D01*
X21483Y40044D01*
Y39281D01*
X21419Y39254D01*
X21174Y39499D01*
X21179Y39507D01*
X21199Y39603D01*
Y39997D01*
X21179Y40093D01*
X21125Y40175D01*
X21043Y40229D01*
X20947Y40249D01*
X20553D01*
X20457Y40229D01*
X20375Y40175D01*
X20321Y40093D01*
X20301Y39997D01*
Y39603D01*
X20321Y39507D01*
X20375Y39425D01*
X20457Y39371D01*
X20553Y39351D01*
X20947D01*
X21043Y39371D01*
X21051Y39376D01*
X21353Y39074D01*
Y38032D01*
X21360Y37998D01*
X21379Y37970D01*
X22263Y37086D01*
Y36461D01*
X22256Y36394D01*
X22193Y36394D01*
X21644D01*
Y35910D01*
X21253Y35520D01*
X21189Y35554D01*
X21199Y35603D01*
Y35997D01*
X21179Y36093D01*
X21125Y36175D01*
X21043Y36229D01*
X20947Y36249D01*
X20553D01*
X20457Y36229D01*
X20375Y36175D01*
X20321Y36093D01*
X20301Y35997D01*
Y35603D01*
X20321Y35507D01*
X20375Y35425D01*
X20457Y35371D01*
X20553Y35351D01*
X20947D01*
X20996Y35361D01*
X21030Y35297D01*
X20976Y35243D01*
X20947Y35249D01*
X20553D01*
X20457Y35229D01*
X20375Y35175D01*
X20321Y35093D01*
X20301Y34997D01*
Y34603D01*
X20321Y34507D01*
X20375Y34425D01*
X20457Y34371D01*
X20553Y34351D01*
X20947D01*
X21043Y34371D01*
X21125Y34425D01*
X21179Y34507D01*
X21199Y34603D01*
Y34997D01*
X21193Y35026D01*
X21339Y35173D01*
X21404Y35138D01*
X21396Y35100D01*
X21412Y35022D01*
X21456Y34956D01*
X21522Y34912D01*
X21600Y34896D01*
X21678Y34912D01*
X21744Y34956D01*
X21783Y35013D01*
X21902D01*
X21931Y34943D01*
X21383Y34395D01*
X21365Y34367D01*
X21358Y34334D01*
Y33756D01*
X21293Y33729D01*
X21199Y33824D01*
Y33997D01*
X21179Y34093D01*
X21125Y34175D01*
X21043Y34229D01*
X20947Y34249D01*
X20553D01*
X20457Y34229D01*
X20375Y34175D01*
X20321Y34093D01*
X20301Y33997D01*
Y33603D01*
X20321Y33507D01*
X20375Y33425D01*
X20457Y33371D01*
X20507Y33361D01*
X20504Y33290D01*
X20476Y33286D01*
X20403Y33256D01*
X20341Y33209D01*
X20294Y33147D01*
X20270Y33089D01*
X20200Y33103D01*
Y48300D01*
X20250Y48350D01*
X30300Y48350D01*
D02*
G37*
G36*
X26943Y19386D02*
Y18250D01*
X26950Y18217D01*
X26969Y18189D01*
X27238Y17920D01*
X27209Y17850D01*
X26699D01*
X26675Y17920D01*
X26732Y17963D01*
X26795Y18046D01*
X26835Y18142D01*
X26849Y18245D01*
Y18500D01*
X26051D01*
Y18245D01*
X26065Y18142D01*
X26105Y18046D01*
X26168Y17963D01*
X26225Y17920D01*
X26201Y17850D01*
X25581D01*
X25567Y17920D01*
X25624Y17944D01*
X25696Y17999D01*
X25752Y18071D01*
X25786Y18155D01*
X25798Y18245D01*
Y18855D01*
X25786Y18945D01*
X25752Y19029D01*
X25696Y19101D01*
X25624Y19156D01*
X25540Y19191D01*
X25537Y19192D01*
Y20701D01*
X25601Y20728D01*
X26943Y19386D01*
D02*
G37*
G36*
X21938Y34157D02*
X21931Y34088D01*
X21920Y34080D01*
X21865Y33998D01*
X21855Y33950D01*
X22100D01*
Y33850D01*
X21855D01*
X21865Y33802D01*
X21875Y33787D01*
X21855Y33710D01*
X21840Y33703D01*
X21771Y33744D01*
Y34199D01*
X21834Y34261D01*
X21938Y34157D01*
D02*
G37*
G36*
X23753Y38744D02*
Y34998D01*
X23687Y34932D01*
X23628Y34906D01*
X23304Y35231D01*
Y35606D01*
X23457D01*
Y36394D01*
X23304D01*
Y37499D01*
X23294Y37548D01*
X23292Y37558D01*
X23259Y37607D01*
X22652Y38215D01*
X22681Y38285D01*
X22717D01*
Y38438D01*
X22941D01*
X22983Y38430D01*
X23417D01*
X23478Y38442D01*
X23531Y38477D01*
X23566Y38529D01*
X23578Y38591D01*
X23566Y38653D01*
X23531Y38705D01*
X23547Y38769D01*
X23589Y38813D01*
X23684D01*
X23753Y38744D01*
D02*
G37*
G36*
X27421Y41626D02*
X27422Y41625D01*
Y41541D01*
X27421Y41540D01*
X27386Y41487D01*
X27373Y41426D01*
X27386Y41364D01*
X27421Y41311D01*
X27422Y41310D01*
Y41226D01*
X27421Y41225D01*
X27386Y41172D01*
X27373Y41111D01*
X27386Y41049D01*
X27421Y40997D01*
X27422Y40995D01*
Y40911D01*
X27421Y40910D01*
X27386Y40857D01*
X27373Y40796D01*
X27386Y40734D01*
X27421Y40682D01*
X27411Y40617D01*
X27364Y40567D01*
X26331D01*
X26303Y40562D01*
X26298Y40561D01*
X26269Y40542D01*
X25291Y39564D01*
X25227Y39591D01*
Y40514D01*
X26366Y41654D01*
X27402D01*
X27421Y41626D01*
D02*
G37*
G36*
X22834Y45147D02*
X22834Y45143D01*
X22869Y45091D01*
X22871Y45090D01*
Y45006D01*
X22869Y45004D01*
X22834Y44952D01*
X22822Y44890D01*
X22834Y44828D01*
X22855Y44798D01*
X22826Y44730D01*
X22824Y44728D01*
X22717D01*
Y44865D01*
X22711D01*
X22674Y44935D01*
X22685Y44952D01*
X22695Y45000D01*
X22450D01*
Y45100D01*
X22711D01*
X22716Y45106D01*
X22767Y45154D01*
X22834Y45147D01*
D02*
G37*
G36*
X29277Y37105D02*
X29264Y37074D01*
X29254Y36997D01*
Y36850D01*
X29750D01*
Y36750D01*
X29254D01*
Y36603D01*
X29264Y36526D01*
X29294Y36453D01*
X29341Y36391D01*
X29403Y36344D01*
X29476Y36314D01*
X29504Y36310D01*
X29507Y36239D01*
X29457Y36229D01*
X29375Y36175D01*
X29321Y36093D01*
X29301Y35997D01*
Y35603D01*
X29321Y35507D01*
X29326Y35499D01*
X29201Y35374D01*
X29137Y35401D01*
Y37064D01*
X29217Y37145D01*
X29277Y37105D01*
D02*
G37*
%LPC*%
G36*
X20947Y25249D02*
X20553D01*
X20457Y25229D01*
X20375Y25175D01*
X20321Y25093D01*
X20301Y24997D01*
Y24603D01*
X20321Y24507D01*
X20375Y24425D01*
X20457Y24371D01*
X20553Y24351D01*
X20947D01*
X21043Y24371D01*
X21125Y24425D01*
X21179Y24507D01*
X21199Y24603D01*
Y24997D01*
X21179Y25093D01*
X21125Y25175D01*
X21043Y25229D01*
X20947Y25249D01*
D02*
G37*
G36*
Y27249D02*
X20553D01*
X20457Y27229D01*
X20375Y27175D01*
X20321Y27093D01*
X20301Y26997D01*
Y26603D01*
X20321Y26507D01*
X20375Y26425D01*
X20457Y26371D01*
X20553Y26351D01*
X20947D01*
X21043Y26371D01*
X21125Y26425D01*
X21179Y26507D01*
X21199Y26603D01*
Y26997D01*
X21179Y27093D01*
X21125Y27175D01*
X21043Y27229D01*
X20947Y27249D01*
D02*
G37*
G36*
Y26249D02*
X20553D01*
X20457Y26229D01*
X20375Y26175D01*
X20321Y26093D01*
X20301Y25997D01*
Y25603D01*
X20321Y25507D01*
X20375Y25425D01*
X20457Y25371D01*
X20553Y25351D01*
X20947D01*
X21043Y25371D01*
X21125Y25425D01*
X21179Y25507D01*
X21199Y25603D01*
Y25997D01*
X21179Y26093D01*
X21125Y26175D01*
X21043Y26229D01*
X20947Y26249D01*
D02*
G37*
G36*
X24900Y27750D02*
X24705D01*
X24715Y27702D01*
X24770Y27620D01*
X24852Y27564D01*
X24900Y27555D01*
Y27750D01*
D02*
G37*
G36*
X27700Y32050D02*
X27505D01*
X27515Y32002D01*
X27570Y31920D01*
X27652Y31865D01*
X27700Y31855D01*
Y32050D01*
D02*
G37*
G36*
X25340Y29545D02*
Y29350D01*
X25535D01*
X25526Y29398D01*
X25470Y29480D01*
X25388Y29536D01*
X25340Y29545D01*
D02*
G37*
G36*
X28900Y32050D02*
X28705D01*
X28714Y32002D01*
X28770Y31920D01*
X28852Y31865D01*
X28900Y31855D01*
Y32050D01*
D02*
G37*
G36*
X23650Y33095D02*
X23602Y33085D01*
X23520Y33030D01*
X23465Y32948D01*
X23455Y32900D01*
X23650D01*
Y33095D01*
D02*
G37*
G36*
X29195Y32050D02*
X29000D01*
Y31855D01*
X29048Y31865D01*
X29130Y31920D01*
X29186Y32002D01*
X29195Y32050D01*
D02*
G37*
G36*
X25240Y29250D02*
X25045D01*
X25055Y29202D01*
X25110Y29120D01*
X25192Y29065D01*
X25240Y29055D01*
Y29250D01*
D02*
G37*
G36*
X25195Y27750D02*
X25000D01*
Y27555D01*
X25048Y27564D01*
X25130Y27620D01*
X25185Y27702D01*
X25195Y27750D01*
D02*
G37*
G36*
X25535Y29250D02*
X25340D01*
Y29055D01*
X25388Y29065D01*
X25470Y29120D01*
X25526Y29202D01*
X25535Y29250D01*
D02*
G37*
G36*
X25240Y29545D02*
X25192Y29536D01*
X25110Y29480D01*
X25055Y29398D01*
X25045Y29350D01*
X25240D01*
Y29545D01*
D02*
G37*
G36*
X29000Y29350D02*
X28805D01*
X28814Y29302D01*
X28870Y29220D01*
X28952Y29165D01*
X29000Y29155D01*
Y29350D01*
D02*
G37*
G36*
X28950Y20250D02*
X28755D01*
X28765Y20202D01*
X28820Y20120D01*
X28902Y20064D01*
X28950Y20055D01*
Y20250D01*
D02*
G37*
G36*
X25000Y19695D02*
Y19500D01*
X25195D01*
X25185Y19548D01*
X25130Y19630D01*
X25048Y19685D01*
X25000Y19695D01*
D02*
G37*
G36*
X24900D02*
X24852Y19685D01*
X24770Y19630D01*
X24715Y19548D01*
X24705Y19500D01*
X24900D01*
Y19695D01*
D02*
G37*
G36*
X29050Y20545D02*
Y20350D01*
X29245D01*
X29235Y20398D01*
X29180Y20480D01*
X29098Y20536D01*
X29050Y20545D01*
D02*
G37*
G36*
X28950D02*
X28902Y20536D01*
X28820Y20480D01*
X28765Y20398D01*
X28755Y20350D01*
X28950D01*
Y20545D01*
D02*
G37*
G36*
X29245Y20250D02*
X29050D01*
Y20055D01*
X29098Y20064D01*
X29180Y20120D01*
X29235Y20202D01*
X29245Y20250D01*
D02*
G37*
G36*
X26400Y19247D02*
X26347Y19240D01*
X26251Y19200D01*
X26168Y19137D01*
X26105Y19054D01*
X26065Y18958D01*
X26051Y18855D01*
Y18600D01*
X26400D01*
Y19247D01*
D02*
G37*
G36*
X23500D02*
Y18600D01*
X23849D01*
Y18855D01*
X23835Y18958D01*
X23795Y19054D01*
X23732Y19137D01*
X23649Y19200D01*
X23553Y19240D01*
X23500Y19247D01*
D02*
G37*
G36*
X23400D02*
X23347Y19240D01*
X23251Y19200D01*
X23168Y19137D01*
X23105Y19054D01*
X23065Y18958D01*
X23051Y18855D01*
Y18600D01*
X23400D01*
Y19247D01*
D02*
G37*
G36*
X25195Y19400D02*
X25000D01*
Y19205D01*
X25048Y19215D01*
X25130Y19270D01*
X25185Y19352D01*
X25195Y19400D01*
D02*
G37*
G36*
X24900D02*
X24705D01*
X24715Y19352D01*
X24770Y19270D01*
X24852Y19215D01*
X24900Y19205D01*
Y19400D01*
D02*
G37*
G36*
X26500Y19247D02*
Y18600D01*
X26849D01*
Y18855D01*
X26835Y18958D01*
X26795Y19054D01*
X26732Y19137D01*
X26649Y19200D01*
X26553Y19240D01*
X26500Y19247D01*
D02*
G37*
G36*
X28000Y23192D02*
Y22850D01*
X28342D01*
X28335Y22903D01*
X28295Y22999D01*
X28232Y23082D01*
X28149Y23145D01*
X28053Y23185D01*
X28000Y23192D01*
D02*
G37*
G36*
X27900D02*
X27847Y23185D01*
X27751Y23145D01*
X27668Y23082D01*
X27605Y22999D01*
X27565Y22903D01*
X27558Y22850D01*
X27900D01*
Y23192D01*
D02*
G37*
G36*
X22300Y23045D02*
Y22850D01*
X22495D01*
X22485Y22898D01*
X22430Y22980D01*
X22348Y23036D01*
X22300Y23045D01*
D02*
G37*
G36*
X23345Y23650D02*
X23150D01*
Y23455D01*
X23198Y23465D01*
X23280Y23520D01*
X23335Y23602D01*
X23345Y23650D01*
D02*
G37*
G36*
X23050D02*
X22855D01*
X22864Y23602D01*
X22920Y23520D01*
X23002Y23465D01*
X23050Y23455D01*
Y23650D01*
D02*
G37*
G36*
X20947Y24249D02*
X20553D01*
X20457Y24229D01*
X20375Y24175D01*
X20321Y24093D01*
X20301Y23997D01*
Y23603D01*
X20321Y23507D01*
X20375Y23425D01*
X20457Y23371D01*
X20553Y23351D01*
X20947D01*
X21043Y23371D01*
X21125Y23425D01*
X21179Y23507D01*
X21199Y23603D01*
Y23997D01*
X21179Y24093D01*
X21125Y24175D01*
X21043Y24229D01*
X20947Y24249D01*
D02*
G37*
G36*
Y23249D02*
X20553D01*
X20457Y23229D01*
X20375Y23175D01*
X20321Y23093D01*
X20301Y22997D01*
Y22603D01*
X20321Y22507D01*
X20375Y22425D01*
X20457Y22371D01*
X20553Y22351D01*
X20947D01*
X21043Y22371D01*
X21125Y22425D01*
X21179Y22507D01*
X21199Y22603D01*
Y22997D01*
X21179Y23093D01*
X21125Y23175D01*
X21043Y23229D01*
X20947Y23249D01*
D02*
G37*
G36*
Y22249D02*
X20553D01*
X20457Y22229D01*
X20375Y22175D01*
X20321Y22093D01*
X20301Y21997D01*
Y21603D01*
X20321Y21507D01*
X20375Y21425D01*
X20457Y21371D01*
X20553Y21351D01*
X20947D01*
X21043Y21371D01*
X21125Y21425D01*
X21179Y21507D01*
X21199Y21603D01*
Y21997D01*
X21179Y22093D01*
X21125Y22175D01*
X21043Y22229D01*
X20947Y22249D01*
D02*
G37*
G36*
Y21249D02*
X20553D01*
X20457Y21229D01*
X20375Y21175D01*
X20321Y21093D01*
X20301Y20997D01*
Y20603D01*
X20321Y20507D01*
X20375Y20425D01*
X20457Y20371D01*
X20553Y20351D01*
X20947D01*
X21043Y20371D01*
X21125Y20425D01*
X21179Y20507D01*
X21199Y20603D01*
Y20997D01*
X21179Y21093D01*
X21125Y21175D01*
X21043Y21229D01*
X20947Y21249D01*
D02*
G37*
G36*
X22200Y23045D02*
X22152Y23036D01*
X22070Y22980D01*
X22015Y22898D01*
X22005Y22850D01*
X22200D01*
Y23045D01*
D02*
G37*
G36*
X22495Y22750D02*
X22300D01*
Y22555D01*
X22348Y22564D01*
X22430Y22620D01*
X22485Y22702D01*
X22495Y22750D01*
D02*
G37*
G36*
X22200D02*
X22005D01*
X22015Y22702D01*
X22070Y22620D01*
X22152Y22564D01*
X22200Y22555D01*
Y22750D01*
D02*
G37*
G36*
X26800Y35350D02*
X26605D01*
X26614Y35302D01*
X26670Y35220D01*
X26752Y35164D01*
X26800Y35155D01*
Y35350D01*
D02*
G37*
G36*
X21500Y42950D02*
X21305D01*
X21314Y42902D01*
X21370Y42820D01*
X21452Y42765D01*
X21500Y42755D01*
Y42950D01*
D02*
G37*
G36*
X27050Y42945D02*
X27002Y42936D01*
X26920Y42880D01*
X26865Y42798D01*
X26855Y42750D01*
X27050D01*
Y42945D01*
D02*
G37*
G36*
X21795Y42950D02*
X21600D01*
Y42755D01*
X21648Y42765D01*
X21730Y42820D01*
X21786Y42902D01*
X21795Y42950D01*
D02*
G37*
G36*
X24350Y43095D02*
Y42900D01*
X24545D01*
X24536Y42948D01*
X24480Y43030D01*
X24398Y43085D01*
X24350Y43095D01*
D02*
G37*
G36*
X24250D02*
X24202Y43085D01*
X24120Y43030D01*
X24065Y42948D01*
X24055Y42900D01*
X24250D01*
Y43095D01*
D02*
G37*
G36*
X24545Y42800D02*
X24350D01*
Y42605D01*
X24398Y42614D01*
X24480Y42670D01*
X24536Y42752D01*
X24545Y42800D01*
D02*
G37*
G36*
X24200Y41095D02*
X24152Y41086D01*
X24070Y41030D01*
X24014Y40948D01*
X24005Y40900D01*
X24200D01*
Y41095D01*
D02*
G37*
G36*
X26350Y40800D02*
X26155D01*
Y40605D01*
X26203Y40615D01*
X26285Y40670D01*
X26341Y40752D01*
X26350Y40800D01*
D02*
G37*
G36*
X26055Y41095D02*
X26007Y41086D01*
X25925Y41030D01*
X25870Y40948D01*
X25860Y40900D01*
X26055D01*
Y41095D01*
D02*
G37*
G36*
X24250Y42800D02*
X24055D01*
X24065Y42752D01*
X24120Y42670D01*
X24202Y42614D01*
X24250Y42605D01*
Y42800D01*
D02*
G37*
G36*
X26155Y41095D02*
Y40900D01*
X26350D01*
X26341Y40948D01*
X26285Y41030D01*
X26203Y41086D01*
X26155Y41095D01*
D02*
G37*
G36*
X21500Y43245D02*
X21452Y43236D01*
X21370Y43180D01*
X21314Y43098D01*
X21305Y43050D01*
X21500D01*
Y43245D01*
D02*
G37*
G36*
X25400Y47400D02*
X25205D01*
X25215Y47352D01*
X25270Y47270D01*
X25352Y47214D01*
X25400Y47205D01*
Y47400D01*
D02*
G37*
G36*
X27968Y46362D02*
X27801D01*
Y46200D01*
X28170D01*
X28164Y46231D01*
X28118Y46300D01*
X28049Y46346D01*
X27968Y46362D01*
D02*
G37*
G36*
X25695Y47400D02*
X25500D01*
Y47205D01*
X25548Y47214D01*
X25630Y47270D01*
X25686Y47352D01*
X25695Y47400D01*
D02*
G37*
G36*
X25500Y47695D02*
Y47500D01*
X25695D01*
X25686Y47548D01*
X25630Y47630D01*
X25548Y47685D01*
X25500Y47695D01*
D02*
G37*
G36*
X25400D02*
X25352Y47685D01*
X25270Y47630D01*
X25215Y47548D01*
X25205Y47500D01*
X25400D01*
Y47695D01*
D02*
G37*
G36*
X27050Y46395D02*
X27002Y46385D01*
X26920Y46330D01*
X26865Y46248D01*
X26855Y46200D01*
X27050D01*
Y46395D01*
D02*
G37*
G36*
X22695Y43250D02*
X22500D01*
Y43055D01*
X22548Y43064D01*
X22630Y43120D01*
X22685Y43202D01*
X22695Y43250D01*
D02*
G37*
G36*
X21600Y43245D02*
Y43050D01*
X21795D01*
X21786Y43098D01*
X21730Y43180D01*
X21648Y43236D01*
X21600Y43245D01*
D02*
G37*
G36*
X27050Y44500D02*
X26855D01*
X26865Y44452D01*
X26920Y44370D01*
X27002Y44314D01*
X27050Y44305D01*
Y44500D01*
D02*
G37*
G36*
Y46100D02*
X26855D01*
X26865Y46052D01*
X26920Y45970D01*
X27002Y45915D01*
X27050Y45905D01*
Y46100D01*
D02*
G37*
G36*
Y44795D02*
X27002Y44785D01*
X26920Y44730D01*
X26865Y44648D01*
X26855Y44600D01*
X27050D01*
Y44795D01*
D02*
G37*
G36*
X20947Y37249D02*
X20553D01*
X20457Y37229D01*
X20375Y37175D01*
X20321Y37093D01*
X20301Y36997D01*
Y36603D01*
X20321Y36507D01*
X20375Y36425D01*
X20457Y36371D01*
X20553Y36351D01*
X20947D01*
X21043Y36371D01*
X21125Y36425D01*
X21179Y36507D01*
X21199Y36603D01*
Y36997D01*
X21179Y37093D01*
X21125Y37175D01*
X21043Y37229D01*
X20947Y37249D01*
D02*
G37*
G36*
X28382Y37040D02*
X28056D01*
Y36638D01*
X27926D01*
Y36254D01*
X28362D01*
Y36636D01*
X28382D01*
Y37040D01*
D02*
G37*
G36*
X21700Y36750D02*
X21505D01*
X21514Y36702D01*
X21570Y36620D01*
X21652Y36565D01*
X21700Y36555D01*
Y36750D01*
D02*
G37*
G36*
X28807Y37040D02*
X28482D01*
Y36636D01*
X28807D01*
Y37040D01*
D02*
G37*
G36*
X21995Y36750D02*
X21800D01*
Y36555D01*
X21848Y36565D01*
X21930Y36620D01*
X21985Y36702D01*
X21995Y36750D01*
D02*
G37*
G36*
X28362Y36154D02*
X28194D01*
Y35769D01*
X28362D01*
Y36154D01*
D02*
G37*
G36*
X28600Y35350D02*
X28405D01*
X28414Y35302D01*
X28470Y35220D01*
X28552Y35164D01*
X28600Y35155D01*
Y35350D01*
D02*
G37*
G36*
X27095D02*
X26900D01*
Y35155D01*
X26948Y35164D01*
X27030Y35220D01*
X27085Y35302D01*
X27095Y35350D01*
D02*
G37*
G36*
X26800Y35645D02*
X26752Y35635D01*
X26670Y35580D01*
X26614Y35498D01*
X26605Y35450D01*
X26800D01*
Y35645D01*
D02*
G37*
G36*
X28600D02*
X28552Y35635D01*
X28470Y35580D01*
X28414Y35498D01*
X28405Y35450D01*
X28600D01*
Y35645D01*
D02*
G37*
G36*
X26900D02*
Y35450D01*
X27095D01*
X27085Y35498D01*
X27030Y35580D01*
X26948Y35635D01*
X26900Y35645D01*
D02*
G37*
G36*
X21700Y37045D02*
X21652Y37036D01*
X21570Y36980D01*
X21514Y36898D01*
X21505Y36850D01*
X21700D01*
Y37045D01*
D02*
G37*
G36*
X27100Y38550D02*
X26905D01*
X26915Y38502D01*
X26970Y38420D01*
X27052Y38365D01*
X27100Y38355D01*
Y38550D01*
D02*
G37*
G36*
X20947Y39249D02*
X20553D01*
X20457Y39229D01*
X20375Y39175D01*
X20321Y39093D01*
X20301Y38997D01*
Y38603D01*
X20321Y38507D01*
X20375Y38425D01*
X20457Y38371D01*
X20553Y38351D01*
X20947D01*
X21043Y38371D01*
X21125Y38425D01*
X21179Y38507D01*
X21199Y38603D01*
Y38997D01*
X21179Y39093D01*
X21125Y39175D01*
X21043Y39229D01*
X20947Y39249D01*
D02*
G37*
G36*
X28170Y38541D02*
X27801D01*
Y38379D01*
X27968D01*
X28049Y38395D01*
X28118Y38441D01*
X28164Y38510D01*
X28170Y38541D01*
D02*
G37*
G36*
X26055Y40800D02*
X25860D01*
X25870Y40752D01*
X25925Y40670D01*
X26007Y40615D01*
X26055Y40605D01*
Y40800D01*
D02*
G37*
G36*
X24200D02*
X24005D01*
X24014Y40752D01*
X24070Y40670D01*
X24152Y40615D01*
X24200Y40605D01*
Y40800D01*
D02*
G37*
G36*
X23400Y38295D02*
Y38100D01*
X23595D01*
X23586Y38148D01*
X23530Y38230D01*
X23448Y38286D01*
X23400Y38295D01*
D02*
G37*
G36*
X20947Y38249D02*
X20553D01*
X20457Y38229D01*
X20375Y38175D01*
X20321Y38093D01*
X20301Y37997D01*
Y37603D01*
X20321Y37507D01*
X20375Y37425D01*
X20457Y37371D01*
X20553Y37351D01*
X20947D01*
X21043Y37371D01*
X21125Y37425D01*
X21179Y37507D01*
X21199Y37603D01*
Y37997D01*
X21179Y38093D01*
X21125Y38175D01*
X21043Y38229D01*
X20947Y38249D01*
D02*
G37*
G36*
X21800Y37045D02*
Y36850D01*
X21995D01*
X21985Y36898D01*
X21930Y36980D01*
X21848Y37036D01*
X21800Y37045D01*
D02*
G37*
G36*
X23300Y38000D02*
X23105D01*
X23115Y37952D01*
X23170Y37870D01*
X23252Y37815D01*
X23300Y37805D01*
Y38000D01*
D02*
G37*
G36*
Y38295D02*
X23252Y38286D01*
X23170Y38230D01*
X23115Y38148D01*
X23105Y38100D01*
X23300D01*
Y38295D01*
D02*
G37*
G36*
X23595Y38000D02*
X23400D01*
Y37805D01*
X23448Y37815D01*
X23530Y37870D01*
X23586Y37952D01*
X23595Y38000D01*
D02*
G37*
%LPD*%
D10*
X21950Y36000D02*
D03*
X23151D02*
D03*
X28950Y32800D02*
D03*
X27749D02*
D03*
D11*
X22950Y25470D02*
D03*
X22281D02*
D03*
D12*
X27762Y34420D02*
D03*
X26738D02*
D03*
X27408Y37090D02*
D03*
X28432D02*
D03*
D13*
X22450Y39250D02*
D03*
Y38581D02*
D03*
Y42000D02*
D03*
Y42669D02*
D03*
Y43900D02*
D03*
Y44569D02*
D03*
Y45500D02*
D03*
Y46169D02*
D03*
X25800Y33000D02*
D03*
Y32331D02*
D03*
X25450Y25450D02*
D03*
Y26119D02*
D03*
X23350Y32400D02*
D03*
Y31731D02*
D03*
D14*
X28790Y27900D02*
D03*
X28317Y28373D02*
D03*
D15*
X23100Y24750D02*
D03*
Y24400D02*
D03*
Y24050D02*
D03*
D16*
X23814Y31475D02*
D03*
X24010D02*
D03*
X24207D02*
D03*
X24404D02*
D03*
X24601D02*
D03*
X24798D02*
D03*
X24995D02*
D03*
X25192D02*
D03*
X25388D02*
D03*
X25585D02*
D03*
X25782D02*
D03*
X25979D02*
D03*
X26176D02*
D03*
X26373D02*
D03*
X26570D02*
D03*
X26766D02*
D03*
Y27125D02*
D03*
X26570D02*
D03*
X26373D02*
D03*
X26176D02*
D03*
X25979D02*
D03*
X25782D02*
D03*
X25585D02*
D03*
X25388D02*
D03*
X25192D02*
D03*
X24995D02*
D03*
X24798D02*
D03*
X24601D02*
D03*
X24404D02*
D03*
X24207D02*
D03*
X24010D02*
D03*
X23814D02*
D03*
D17*
X27465Y30776D02*
D03*
Y30580D02*
D03*
Y30383D02*
D03*
Y30186D02*
D03*
Y29989D02*
D03*
Y29792D02*
D03*
Y29595D02*
D03*
Y29398D02*
D03*
Y29202D02*
D03*
Y29005D02*
D03*
Y28808D02*
D03*
Y28611D02*
D03*
Y28414D02*
D03*
Y28217D02*
D03*
Y28020D02*
D03*
Y27824D02*
D03*
X23115D02*
D03*
Y28020D02*
D03*
Y28217D02*
D03*
Y28414D02*
D03*
Y28611D02*
D03*
Y28808D02*
D03*
Y29005D02*
D03*
Y29202D02*
D03*
Y29398D02*
D03*
Y29595D02*
D03*
Y29792D02*
D03*
Y29989D02*
D03*
Y30186D02*
D03*
Y30383D02*
D03*
Y30580D02*
D03*
Y30776D02*
D03*
D18*
X21857Y26924D02*
D03*
Y26550D02*
D03*
Y26176D02*
D03*
X22743Y26924D02*
D03*
Y26550D02*
D03*
Y26176D02*
D03*
D19*
X27770Y35416D02*
D03*
X27396Y36204D02*
D03*
X28144D02*
D03*
D20*
X23112Y34962D02*
D03*
X22388Y34238D02*
D03*
D21*
X23200Y46150D02*
D03*
D22*
Y45835D02*
D03*
Y45520D02*
D03*
Y45205D02*
D03*
Y44890D02*
D03*
Y44575D02*
D03*
Y44260D02*
D03*
Y43945D02*
D03*
Y43630D02*
D03*
Y43315D02*
D03*
Y43000D02*
D03*
Y42685D02*
D03*
Y42370D02*
D03*
Y42056D02*
D03*
Y41741D02*
D03*
Y41426D02*
D03*
Y41111D02*
D03*
Y40796D02*
D03*
Y40481D02*
D03*
Y40166D02*
D03*
Y39851D02*
D03*
Y39536D02*
D03*
Y39221D02*
D03*
Y38906D02*
D03*
Y38591D02*
D03*
X27751Y46150D02*
D03*
Y45835D02*
D03*
Y45520D02*
D03*
Y45205D02*
D03*
Y44890D02*
D03*
Y44575D02*
D03*
Y44260D02*
D03*
Y43945D02*
D03*
Y43630D02*
D03*
Y43315D02*
D03*
Y43000D02*
D03*
Y42685D02*
D03*
Y42370D02*
D03*
Y42056D02*
D03*
Y41741D02*
D03*
Y41426D02*
D03*
Y41111D02*
D03*
Y40796D02*
D03*
Y40481D02*
D03*
Y40166D02*
D03*
Y39851D02*
D03*
Y39536D02*
D03*
Y39221D02*
D03*
Y38906D02*
D03*
Y38591D02*
D03*
D23*
X22316Y24300D02*
D03*
X21784D02*
D03*
D24*
X20341Y32391D02*
X20750Y32800D01*
X20341Y33209D02*
X20750Y32800D01*
X29750Y36800D02*
X30200Y36350D01*
X29750Y36800D02*
X30200Y37250D01*
X25500Y30500D02*
X26200D01*
X25350D02*
X25500D01*
X25200D02*
X25350D01*
X24300D02*
X25200D01*
X24300Y28200D02*
X25450D01*
X24110D02*
X24300D01*
X24100Y28400D02*
Y30250D01*
Y28210D02*
Y28400D01*
X24300Y28200D01*
X23983Y30500D02*
X24300D01*
X24100Y30300D02*
Y30383D01*
Y30250D02*
Y30300D01*
X24300Y30500D01*
X26200D02*
X26450D01*
X26400Y30300D02*
Y30450D01*
Y28750D02*
Y30300D01*
X26200Y30500D02*
X26400Y30300D01*
X26200Y28200D02*
X26400D01*
X25750D02*
X26200D01*
X26400D02*
Y28400D01*
Y28500D01*
X26200Y28200D02*
X26400Y28400D01*
X25450Y28200D02*
X25750D01*
X26400Y28500D02*
Y28750D01*
Y30450D02*
X26450Y30500D01*
X24100Y28210D02*
X24110Y28200D01*
X23350Y31133D02*
X23983Y30500D01*
X23151Y36000D02*
Y37499D01*
Y35001D02*
Y36000D01*
X23112Y34962D02*
X23151Y35001D01*
X22450Y38200D02*
X23151Y37499D01*
X22450Y38200D02*
Y38581D01*
X22050Y38800D02*
Y46000D01*
Y38800D02*
X22269Y38581D01*
X22050Y46000D02*
X22250Y46200D01*
X25450Y24900D02*
Y25450D01*
X22400Y24750D02*
X23100D01*
X22281Y24869D02*
X22400Y24750D01*
X22281Y25900D02*
Y26411D01*
X22420Y26550D01*
X28950Y32800D02*
X29750D01*
X27762Y34420D02*
X27770Y34428D01*
X27749Y34407D02*
X27762Y34420D01*
X27749Y32800D02*
Y34407D01*
X26450Y30500D02*
X27250Y31300D01*
Y35040D01*
X27396Y35186D01*
Y36204D01*
X27770Y34428D02*
Y35416D01*
X27396Y37078D02*
X27408Y37090D01*
X27396Y36204D02*
Y37078D01*
X22460Y38591D02*
X23200D01*
X22450Y38581D02*
X22460Y38591D01*
X22419Y46200D02*
X22450Y46169D01*
X22469Y46150D01*
X23200D01*
X22269Y38581D02*
X22450D01*
Y43300D02*
Y43900D01*
Y41400D02*
Y42000D01*
X22050Y42685D02*
X23200D01*
X22050Y44575D02*
X23200D01*
X26400Y28200D02*
X27950Y26650D01*
Y23800D02*
Y26650D01*
X22420Y26550D02*
X22743D01*
X27100Y46150D02*
X27751D01*
X27115Y42685D02*
X27751D01*
X27100Y42700D02*
X27115Y42685D01*
X27159Y38591D02*
X27751D01*
X27150Y38600D02*
X27159Y38591D01*
X23350Y31133D02*
Y31731D01*
X23560Y27490D02*
X23750Y27680D01*
Y29750D01*
X22450Y45050D02*
Y45500D01*
X22100Y33900D02*
X22438Y34238D01*
X20750Y34800D02*
X21950Y36000D01*
X23560Y26260D02*
Y27490D01*
X22750Y34600D02*
X23112Y34962D01*
X22281Y25900D02*
X22302Y25879D01*
X22281Y24869D02*
Y25470D01*
Y25900D01*
X22302Y25879D02*
X23179D01*
X23560Y26260D01*
X25800Y33000D02*
Y33550D01*
X23350Y32400D02*
Y32500D01*
X23700Y32850D01*
X29045Y27085D02*
X29060Y27070D01*
X27125Y44575D02*
X27751D01*
X27100Y44550D02*
X27125Y44575D01*
X22450Y39250D02*
Y39900D01*
Y41400D01*
X28790Y27800D02*
Y27900D01*
Y27800D02*
X29045Y27545D01*
Y27085D02*
Y27545D01*
D25*
X23100Y24050D02*
Y24400D01*
X22524Y27824D02*
X22724D01*
X22446Y27546D02*
X22450Y27550D01*
Y27750D01*
X22524Y27824D01*
X28150Y33539D02*
X29050Y34439D01*
X28150Y31100D02*
Y33539D01*
X29050Y34439D02*
Y37100D01*
X28280Y33500D02*
X29170Y34390D01*
X28280Y30935D02*
Y33500D01*
X29170Y34390D02*
Y35220D01*
X29050Y37100D02*
X29750Y37800D01*
X28450Y37900D02*
X28600Y38050D01*
X26504Y37900D02*
X28450D01*
X26190Y37586D02*
X26504Y37900D01*
X26600Y38180D02*
X28200D01*
X26060Y37640D02*
X26600Y38180D01*
X23770Y42050D02*
X24620Y41200D01*
Y34582D02*
Y41200D01*
X21710Y38129D02*
Y40940D01*
Y38129D02*
X22610Y37229D01*
X20950Y41700D02*
X21710Y40940D01*
X21570Y38086D02*
Y40080D01*
Y38086D02*
X22480Y37176D01*
X20950Y40700D02*
X21570Y40080D01*
X20750Y39800D02*
X21440Y39110D01*
Y38032D02*
Y39110D01*
Y38032D02*
X22350Y37122D01*
X28770Y41730D02*
Y43780D01*
X28300Y44250D02*
X28770Y43780D01*
X27761Y44250D02*
X28300D01*
X28630Y40820D02*
Y43570D01*
X28255Y43945D02*
X28630Y43570D01*
X27751Y43945D02*
X28255D01*
X28490Y39960D02*
Y43360D01*
X28220Y43630D02*
X28490Y43360D01*
X27751Y43630D02*
X28220D01*
X29200Y44800D02*
X29950D01*
X28165Y45835D02*
X29200Y44800D01*
X27751Y45835D02*
X28165D01*
X29750Y46800D02*
X29950D01*
X25048Y46820D02*
X29730D01*
X29750Y46800D01*
X28850Y46700D02*
X29750Y45800D01*
X25098Y46700D02*
X28850D01*
X24600Y46202D02*
X25098Y46700D01*
X24600Y44250D02*
Y46202D01*
X23665Y43315D02*
X24600Y44250D01*
X24480Y44430D02*
Y46252D01*
X23680Y43630D02*
X24480Y44430D01*
Y46252D02*
X25048Y46820D01*
X24360Y44610D02*
Y46301D01*
X23695Y43945D02*
X24360Y44610D01*
Y46301D02*
X24999Y46940D01*
X24240Y44790D02*
Y46589D01*
X23710Y44260D02*
X24240Y44790D01*
X23699Y47130D02*
X24240Y46589D01*
X24120Y45070D02*
Y46539D01*
X23940Y44890D02*
X24120Y45070D01*
X23649Y47010D02*
X24120Y46539D01*
X23599Y46890D02*
X24000Y46489D01*
Y45310D02*
Y46489D01*
X23895Y45205D02*
X24000Y45310D01*
X23870Y45680D02*
Y46450D01*
X23710Y45520D02*
X23870Y45680D01*
X23550Y46770D02*
X23870Y46450D01*
X21520Y47130D02*
X23699D01*
X20850Y47800D02*
X21520Y47130D01*
X22051Y47010D02*
X23649D01*
X21841Y46800D02*
X22051Y47010D01*
X20950Y46800D02*
X21841D01*
X22101Y46890D02*
X23599D01*
X21625Y46414D02*
X22101Y46890D01*
X21625Y46075D02*
Y46414D01*
X21350Y45800D02*
X21625Y46075D01*
X21745Y46365D02*
X22150Y46770D01*
X21745Y45245D02*
Y46365D01*
X21300Y44800D02*
X21745Y45245D01*
X22150Y46770D02*
X23550D01*
X22200Y46650D02*
X23500D01*
X21865Y46315D02*
X22200Y46650D01*
X21865Y44215D02*
Y46315D01*
X21450Y43800D02*
X21865Y44215D01*
X28410Y30810D02*
Y33460D01*
X28540Y30685D02*
Y33190D01*
X27826Y30776D02*
X28150Y31100D01*
X27926Y30580D02*
X28280Y30935D01*
X27983Y30383D02*
X28410Y30810D01*
X28040Y30186D02*
X28540Y30685D01*
X29250Y31800D02*
X29750D01*
X28850Y31400D02*
X29250Y31800D01*
X28850Y30700D02*
Y31400D01*
X29250Y30800D02*
X29950D01*
X28242Y29792D02*
X29250Y30800D01*
X28139Y29989D02*
X28850Y30700D01*
X22816Y32580D02*
X24750Y34514D01*
X22816Y30776D02*
Y32580D01*
Y30776D02*
X23115D01*
X28470Y18320D02*
X29000Y18850D01*
X27530Y18320D02*
X28470D01*
X27430Y18420D02*
X27530Y18320D01*
X29046Y17960D02*
X29210Y17796D01*
X27320Y17960D02*
X29046D01*
X27030Y18250D02*
X27320Y17960D01*
X27030Y18250D02*
Y19422D01*
X24810Y21642D02*
X27030Y19422D01*
X27370Y18080D02*
X29268D01*
X29490Y17858D01*
X27150Y18300D02*
X27370Y18080D01*
X29150Y18200D02*
X29750Y18800D01*
X27450Y18200D02*
X29150D01*
X27290Y18360D02*
X27450Y18200D01*
X21860Y18740D02*
Y21161D01*
X21300Y18180D02*
X21860Y18740D01*
X21300Y17350D02*
Y18180D01*
X26373Y31475D02*
Y33613D01*
X26060Y33926D02*
X26373Y33613D01*
X22700Y24400D02*
X23100D01*
X22600Y24300D02*
X22700Y24400D01*
X22296Y24300D02*
X22600D01*
X21800Y24000D02*
X22700Y23100D01*
X21800Y24000D02*
Y25780D01*
X26474Y37686D02*
X28944D01*
X26320Y37532D02*
X26474Y37686D01*
X24404Y23705D02*
Y27125D01*
X21860Y21161D02*
X24404Y23705D01*
X24207Y23692D02*
Y27125D01*
X21730Y21215D02*
X24207Y23692D01*
X21730Y18780D02*
Y21215D01*
X24010Y23679D02*
Y27125D01*
X21600Y21269D02*
X24010Y23679D01*
X21600Y19650D02*
Y21269D01*
X20950Y18000D02*
X21730Y18780D01*
X20950Y19000D02*
X21600Y19650D01*
X26770Y22430D02*
Y26180D01*
Y22430D02*
X27400Y21800D01*
X26373Y26577D02*
X26770Y26180D01*
X26766Y26584D02*
X27030Y26320D01*
X27085Y20300D02*
X28200D01*
X26155Y21230D02*
X27085Y20300D01*
X26155Y21230D02*
Y27104D01*
X27402Y19800D02*
X27950D01*
X25979Y21223D02*
X27402Y19800D01*
X25979Y21223D02*
Y27125D01*
X27430Y18420D02*
Y19588D01*
X25782Y21236D02*
X27430Y19588D01*
X25782Y21236D02*
Y27125D01*
X24810Y21642D02*
Y26496D01*
X27150Y18300D02*
Y19486D01*
X24940Y21696D02*
X27150Y19486D01*
X24940Y21696D02*
Y26442D01*
X27290Y18360D02*
Y19544D01*
X25070Y21764D02*
X27290Y19544D01*
X25070Y21764D02*
Y26374D01*
X25450Y18850D02*
Y20818D01*
X24680Y21588D02*
X25450Y20818D01*
X24798Y26668D02*
Y27125D01*
X24680Y26550D02*
X24798Y26668D01*
X24680Y21588D02*
Y26550D01*
X24810Y26496D02*
X24995Y26681D01*
X25070Y26374D02*
X25388Y26692D01*
X23814Y23666D02*
Y27125D01*
X21470Y21323D02*
X23814Y23666D01*
X23026Y26176D02*
X23250Y26400D01*
X21805Y30011D02*
X22811Y29005D01*
X23115D01*
X28540Y33190D02*
X29150Y33800D01*
X28410Y33460D02*
X29750Y34800D01*
Y32800D02*
X29950D01*
X27400Y21800D02*
X27950D01*
X27250Y20800D02*
X27950D01*
X26450Y21600D02*
X27250Y20800D01*
X26900Y22490D02*
Y26250D01*
X26766Y26584D02*
Y27125D01*
X26570Y26580D02*
X26900Y26250D01*
X26155Y27104D02*
X26176Y27125D01*
X26373Y26577D02*
Y27125D01*
X26570Y26580D02*
Y27125D01*
X22350Y35468D02*
Y37122D01*
X29750Y38800D02*
X29950D01*
X29650D02*
X29750D01*
X28600Y37950D02*
Y38050D01*
X29700Y40800D02*
X29750D01*
Y39800D02*
X29950D01*
X29650D02*
X29750D01*
X28770Y41730D02*
X29700Y40800D01*
X23840Y34962D02*
Y38780D01*
X23720Y38900D02*
X23840Y38780D01*
X23970Y34908D02*
Y38970D01*
X24100Y34854D02*
Y39160D01*
X24230Y34786D02*
Y39340D01*
X24360Y34718D02*
Y39530D01*
X24490Y34650D02*
Y39710D01*
X24750Y34514D02*
Y41390D01*
X24880Y34446D02*
Y40910D01*
X25010Y34378D02*
Y40720D01*
X25140Y34310D02*
Y40550D01*
X25270Y34242D02*
Y39420D01*
X25400Y34174D02*
Y39230D01*
X25530Y34106D02*
Y39050D01*
X25660Y34038D02*
Y38860D01*
X25790Y33970D02*
Y38680D01*
X24010Y33577D02*
X24880Y34446D01*
X24207Y33575D02*
X25010Y34378D01*
X24404Y33574D02*
X25140Y34310D01*
X24601Y33573D02*
X25270Y34242D01*
X24798Y33572D02*
X25400Y34174D01*
X24995Y33571D02*
X25530Y34106D01*
X25192Y33570D02*
X25660Y34038D01*
X25388Y33569D02*
X25790Y33970D01*
X25930Y33872D02*
Y38500D01*
X26060Y33926D02*
Y37640D01*
X26190Y33980D02*
Y37586D01*
X26320Y34034D02*
Y37532D01*
Y34034D02*
X26344Y34010D01*
X26350D01*
X26766Y33594D01*
Y31475D02*
Y33594D01*
X26176Y31475D02*
Y33626D01*
X25930Y33872D02*
X26176Y33626D01*
X26570Y31475D02*
Y33600D01*
X26190Y33980D02*
X26570Y33600D01*
X26336Y38906D02*
X27751D01*
X25930Y38500D02*
X26336Y38906D01*
X29650Y37800D02*
X29750D01*
X25790Y38680D02*
X26331Y39221D01*
X25660Y38860D02*
X26336Y39536D01*
X25530Y39050D02*
X26331Y39851D01*
X25400Y39230D02*
X26336Y40166D01*
X25270Y39420D02*
X26331Y40481D01*
X25140Y40550D02*
X26331Y41741D01*
X25010Y40720D02*
X26340Y42050D01*
X24880Y40910D02*
X26340Y42370D01*
X23770D02*
X24750Y41390D01*
X23720Y40480D02*
X24490Y39710D01*
X23724Y40166D02*
X24360Y39530D01*
X23720Y39850D02*
X24230Y39340D01*
X23724Y39536D02*
X24100Y39160D01*
X23719Y39221D02*
X23970Y38970D01*
X21935Y30067D02*
X22050Y29952D01*
Y29950D02*
Y29952D01*
X21805Y30011D02*
Y33355D01*
X22740Y35290D02*
Y37283D01*
X21850Y38173D02*
X22740Y37283D01*
X21850Y38173D02*
Y41800D01*
X22455Y30345D02*
X22811Y29989D01*
X22325Y30275D02*
X22808Y29792D01*
X22195Y30205D02*
X22805Y29595D01*
X22065Y30135D02*
X22660Y29540D01*
X22803Y29398D02*
X23115D01*
X22662Y29540D02*
X22803Y29398D01*
X22660Y29540D02*
X22662D01*
X22805Y29595D02*
X23115D01*
X22808Y29792D02*
X23115D01*
X22811Y29989D02*
X23115D01*
X22050Y29950D02*
X22054D01*
X28200Y20300D02*
X28500Y20000D01*
X29490Y17800D02*
X29950D01*
X29490D02*
Y17858D01*
X21900Y35750D02*
Y35800D01*
X22796Y30580D02*
X23115D01*
X20850Y42800D02*
X21850Y41800D01*
X20950Y40700D02*
Y40800D01*
Y41700D02*
Y41800D01*
Y44800D02*
X21300D01*
X20950Y43800D02*
X21450D01*
X23200Y45835D02*
X23595D01*
X23200Y45520D02*
X23710D01*
X23200Y45205D02*
X23895D01*
X27751Y44260D02*
X27761Y44250D01*
X29700Y42800D02*
X29950D01*
X27751Y43315D02*
X27767Y43300D01*
X23200Y43630D02*
X23680D01*
X23200Y43315D02*
X23665D01*
X23200Y44260D02*
X23710D01*
X27390Y30562D02*
X27408Y30580D01*
X27356Y30562D02*
X27390D01*
X27465Y30186D02*
X28040D01*
X27465Y30383D02*
X27983D01*
X28505Y29800D02*
X29950D01*
X27465Y29595D02*
X28300D01*
X28505Y29800D01*
X27465Y29202D02*
X27467Y29200D01*
X27408Y30580D02*
X27926D01*
X20950Y45800D02*
X21350D01*
X27746Y42050D02*
X27751Y42056D01*
X23200D02*
X23206Y42050D01*
X27950Y18800D02*
X28500Y19350D01*
Y20000D01*
X23200Y40481D02*
X23201Y40480D01*
X23200Y39851D02*
X23201Y39850D01*
X23200Y38906D02*
X23206Y38900D01*
X23200Y43945D02*
X23695D01*
X23200Y44890D02*
X23940D01*
X24995Y31475D02*
Y33571D01*
X25192Y31475D02*
Y33570D01*
X25388Y31475D02*
Y33569D01*
X24995Y26681D02*
Y27125D01*
X24940Y26442D02*
X25192Y26694D01*
Y27125D01*
X25388Y26692D02*
Y27125D01*
X24798Y31475D02*
Y33572D01*
X24601Y31475D02*
Y33573D01*
X22200Y29800D02*
Y29804D01*
X22054Y29950D02*
X22200Y29804D01*
X22724Y27824D02*
X23115D01*
X21857Y26924D02*
Y27557D01*
X23115Y28808D02*
X23446D01*
X23550Y28704D01*
X22446Y26924D02*
X22743D01*
X22446D02*
Y27546D01*
X22818Y30186D02*
X23115D01*
X22798Y29202D02*
X23115D01*
X22615Y28611D02*
X23115D01*
X22200Y29800D02*
X22600Y29400D01*
X22604D01*
X22750Y29254D01*
Y29250D02*
Y29254D01*
Y29250D02*
X22798Y29202D01*
X22743Y26176D02*
X23026D01*
X26331Y40481D02*
X27751D01*
X26336Y39536D02*
X27751D01*
X26331Y39221D02*
X27751D01*
X26331Y39851D02*
X27751D01*
X26336Y40166D02*
X27751D01*
X23200Y39221D02*
X23719D01*
X23206Y38900D02*
X23720D01*
X23200Y39536D02*
X23724D01*
X23201Y39850D02*
X23720D01*
X23200Y40166D02*
X23724D01*
X23201Y40480D02*
X23720D01*
X23206Y42050D02*
X23770D01*
X23200Y42370D02*
X23770D01*
X26331Y41741D02*
X27751D01*
X26340Y42050D02*
X27746D01*
X27767Y43300D02*
X28220D01*
X29800Y43800D02*
X29950D01*
X27751Y45520D02*
X28080D01*
X29800Y43800D01*
X23595Y45835D02*
X23750Y45990D01*
Y46400D01*
X23500Y46650D02*
X23750Y46400D01*
X20650Y47800D02*
X20850D01*
X27600Y30776D02*
X27826D01*
X29150Y33800D02*
X29950D01*
X20750D02*
X21100D01*
X29750Y25800D02*
X29950D01*
X29750Y24800D02*
X29950D01*
X29750Y23800D02*
X29950D01*
X27465Y29989D02*
X28139D01*
X27465Y29005D02*
X28495D01*
X29700Y27800D01*
X29950D01*
X29750Y41800D02*
X29950D01*
X26340Y42370D02*
X27751D01*
X24999Y46940D02*
X28890D01*
X29750Y47800D01*
X29950D01*
X29750Y45800D02*
X29950D01*
X28350Y39100D02*
X29650Y37800D01*
X28350Y39100D02*
Y43170D01*
X28220Y43300D02*
X28350Y43170D01*
X28490Y39960D02*
X29650Y38800D01*
X28630Y40820D02*
X29650Y39800D01*
X28910Y42640D02*
X29750Y41800D01*
Y22800D02*
X29950D01*
X29750Y21800D02*
X29950D01*
X29750Y20800D02*
X29950D01*
X20950Y19800D02*
Y20000D01*
X21470Y20520D01*
Y21323D01*
X20950Y18800D02*
Y19000D01*
Y17800D02*
Y18000D01*
Y16800D02*
Y17000D01*
X21300Y17350D01*
X29210Y17340D02*
Y17796D01*
Y17340D02*
X29750Y16800D01*
X29850D01*
X29750Y19800D02*
X29950D01*
X29750Y18800D02*
X29950D01*
X27465Y29792D02*
X28242D01*
X24404Y31475D02*
Y33574D01*
X24207Y31475D02*
Y33575D01*
X23814Y31093D02*
Y31475D01*
Y31093D02*
X24007Y30900D01*
X24050D01*
X24010Y31475D02*
Y33577D01*
X29750Y34800D02*
X29950D01*
X29750Y35800D02*
X29950D01*
X25979Y31150D02*
Y31475D01*
X26450Y21600D02*
Y26050D01*
X27751Y45205D02*
X28095D01*
X27751Y44890D02*
X28110D01*
X28910Y44090D01*
Y42640D02*
Y44090D01*
X28095Y45205D02*
X29050Y44250D01*
Y43450D02*
X29700Y42800D01*
X29050Y43450D02*
Y44250D01*
X23550Y27760D02*
Y28704D01*
X21805Y33355D02*
X21950Y33500D01*
X21600Y35100D02*
X21982D01*
X22350Y35468D01*
X22455Y30345D02*
Y32813D01*
X24360Y34718D01*
X22325Y30275D02*
Y32881D01*
X24230Y34786D01*
X22195Y30205D02*
Y32949D01*
X24100Y34854D01*
X22065Y30135D02*
Y33003D01*
X23970Y34908D01*
X21935Y30067D02*
Y33056D01*
X23840Y34962D01*
X22480Y35369D02*
Y37176D01*
X22610Y35330D02*
Y37229D01*
X29000Y18850D02*
Y19050D01*
X29750Y19800D01*
X22130Y28020D02*
X23115D01*
X22624Y28414D02*
X23115D01*
X23200Y26640D02*
Y27410D01*
X23550Y27760D01*
X23250Y26400D02*
Y26640D01*
X21800Y26119D02*
X21857Y26176D01*
X21800Y25780D02*
Y26119D01*
X26260Y30869D02*
Y30940D01*
X25979Y31150D02*
X26260Y30869D01*
X22576Y30428D02*
Y32736D01*
Y30428D02*
X22818Y30186D01*
X22576Y32736D02*
X24490Y34650D01*
X22696Y30680D02*
Y32658D01*
Y30680D02*
X22796Y30580D01*
X22696Y32658D02*
X24620Y34582D01*
X21685Y29542D02*
Y34235D01*
X22740Y35290D01*
X21685Y29542D02*
X22615Y28611D01*
X21565Y34284D02*
X22610Y35330D01*
X21565Y29474D02*
X22624Y28414D01*
X21565Y29474D02*
Y34284D01*
X21445Y34334D02*
X22480Y35369D01*
X21445Y28705D02*
X22130Y28020D01*
X21445Y28705D02*
Y34334D01*
X21100Y33800D02*
X21325Y33575D01*
Y28089D02*
X21857Y27557D01*
X21325Y28089D02*
Y33575D01*
X27465Y28808D02*
X27471Y28814D01*
X28386D01*
X27465Y28414D02*
X27796D01*
X27465Y28217D02*
X27823D01*
X27465Y28020D02*
X27850D01*
X27465Y27824D02*
X27877D01*
X26900Y22490D02*
X27160Y22230D01*
X28320D01*
X29750Y20800D01*
X27030Y22530D02*
X27210Y22350D01*
X29200D01*
X29750Y21800D01*
X27030Y22530D02*
Y26320D01*
X27796Y28414D02*
X28770Y27440D01*
X27823Y28217D02*
X28650Y27390D01*
X28403Y24147D02*
X29750Y22800D01*
X28530Y25020D02*
X29750Y23800D01*
X28650Y25900D02*
X29750Y24800D01*
X28770Y26780D02*
X29750Y25800D01*
X28403Y24147D02*
Y27298D01*
X27877Y27824D02*
X28403Y27298D01*
X28530Y25020D02*
Y27341D01*
X27850Y28020D02*
X28530Y27341D01*
X28650Y25900D02*
Y27390D01*
X28770Y26780D02*
Y27440D01*
X29170Y35220D02*
X29750Y35800D01*
X28600Y29200D02*
X29000Y28800D01*
X29750D01*
X29950D01*
X27467Y29200D02*
X28600D01*
X29230Y27831D02*
X29231Y27832D01*
Y27969D01*
X28386Y28814D02*
X29231Y27969D01*
X29230Y27320D02*
Y27831D01*
Y27320D02*
X29750Y26800D01*
X23850Y21550D02*
Y22600D01*
Y21550D02*
X24450Y20950D01*
Y18850D02*
Y20950D01*
D26*
X23865Y30383D02*
X23900D01*
X23115D02*
X23865D01*
X23983Y30500D01*
X25450Y28171D02*
Y28200D01*
Y28171D02*
X25585Y28035D01*
Y28085D01*
Y28035D02*
X25750Y28200D01*
X25585Y27125D02*
Y28035D01*
X26539Y28611D02*
X27465D01*
X26400Y28500D02*
X26428D01*
X26539Y28611D01*
X26461D02*
X26539D01*
X26400Y28750D02*
X26539Y28611D01*
X25350Y30650D02*
Y30870D01*
Y30650D02*
X25500Y30500D01*
X25350D02*
Y30650D01*
X25200Y30500D02*
X25350Y30650D01*
X23900Y30383D02*
X24033Y30250D01*
X24100D01*
X23900Y30383D02*
X24100D01*
X25585Y26650D02*
Y27125D01*
X25450Y26515D02*
X25585Y26650D01*
X25450Y26119D02*
Y26515D01*
X25585Y31835D02*
X25800Y32050D01*
X25585Y31475D02*
Y31835D01*
X25800Y32050D02*
Y32281D01*
X25782Y30868D02*
Y31475D01*
X26802Y29398D02*
X27465D01*
X28039Y28611D02*
X28375Y28275D01*
X27465Y28611D02*
X28039D01*
X23100Y23700D02*
Y24050D01*
X22383Y28217D02*
X23115D01*
X22050Y28550D02*
X22383Y28217D01*
X25350Y30870D02*
X25585Y31105D01*
Y31475D01*
D27*
X29750Y16800D02*
D03*
Y17800D02*
D03*
Y18800D02*
D03*
Y19800D02*
D03*
Y20800D02*
D03*
Y21800D02*
D03*
Y22800D02*
D03*
Y23800D02*
D03*
Y24800D02*
D03*
Y25800D02*
D03*
Y26800D02*
D03*
Y27800D02*
D03*
Y28800D02*
D03*
Y29800D02*
D03*
Y30800D02*
D03*
Y31800D02*
D03*
Y32800D02*
D03*
Y33800D02*
D03*
Y34800D02*
D03*
Y35800D02*
D03*
Y36800D02*
D03*
Y37800D02*
D03*
Y38800D02*
D03*
Y39800D02*
D03*
Y40800D02*
D03*
Y41800D02*
D03*
Y42800D02*
D03*
Y43800D02*
D03*
Y44800D02*
D03*
Y45800D02*
D03*
Y46800D02*
D03*
Y47800D02*
D03*
X20750Y16800D02*
D03*
Y17800D02*
D03*
Y18800D02*
D03*
Y19800D02*
D03*
Y20800D02*
D03*
Y21800D02*
D03*
Y22800D02*
D03*
Y23800D02*
D03*
Y24800D02*
D03*
Y25800D02*
D03*
Y26800D02*
D03*
Y27800D02*
D03*
Y28800D02*
D03*
Y29800D02*
D03*
Y30800D02*
D03*
Y31800D02*
D03*
Y32800D02*
D03*
Y33800D02*
D03*
Y34800D02*
D03*
Y35800D02*
D03*
Y36800D02*
D03*
Y37800D02*
D03*
Y38800D02*
D03*
Y39800D02*
D03*
Y40800D02*
D03*
Y41800D02*
D03*
Y42800D02*
D03*
Y43800D02*
D03*
Y44800D02*
D03*
Y45800D02*
D03*
Y46800D02*
D03*
Y47800D02*
D03*
D28*
X23450Y18550D02*
D03*
X24450D02*
D03*
X25450D02*
D03*
X26450D02*
D03*
D29*
X27950Y18800D02*
D03*
D30*
Y19800D02*
D03*
Y20800D02*
D03*
Y21800D02*
D03*
Y22800D02*
D03*
Y23800D02*
D03*
D31*
X24300Y42850D02*
D03*
X21550Y43000D02*
D03*
X28950Y32100D02*
D03*
X29050Y29400D02*
D03*
X27750Y32100D02*
D03*
X22700Y23100D02*
D03*
X23750Y29750D02*
D03*
X24950Y19450D02*
D03*
X23850Y22600D02*
D03*
X28600Y37950D02*
D03*
X28250Y38200D02*
D03*
X28650Y35400D02*
D03*
X25800Y33550D02*
D03*
X22450Y27550D02*
D03*
Y43300D02*
D03*
Y41400D02*
D03*
X25450Y24900D02*
D03*
X26802Y29398D02*
D03*
X21857Y27557D02*
D03*
X22250Y22800D02*
D03*
X25450Y47450D02*
D03*
X23350Y38050D02*
D03*
X21750Y36800D02*
D03*
X29000Y20300D02*
D03*
X23500Y25500D02*
D03*
X25782Y30868D02*
D03*
X25290Y29300D02*
D03*
X26105Y40850D02*
D03*
X24250D02*
D03*
X27100Y46150D02*
D03*
Y42700D02*
D03*
X27150Y38600D02*
D03*
X26850Y35400D02*
D03*
X23700Y32850D02*
D03*
X24050Y30900D02*
D03*
X24950Y27800D02*
D03*
X26450Y26050D02*
D03*
X23100Y23700D02*
D03*
X22450Y45050D02*
D03*
X22100Y33900D02*
D03*
X21950Y33500D02*
D03*
X21600Y35100D02*
D03*
X22050Y28550D02*
D03*
X23200Y26640D02*
D03*
X21800Y25780D02*
D03*
X26260Y30940D02*
D03*
X22750Y34600D02*
D03*
X28944Y37686D02*
D03*
X29060Y27070D02*
D03*
X27100Y44550D02*
D03*
X22450Y39900D02*
D03*
M02*
