G04 Layer_Color=7318015*
%FSLAX24Y24*%
%MOIN*%
G70*
G01*
G75*
%ADD10R,0.0492X0.0433*%
%ADD11R,0.0709X0.0551*%
%ADD12R,0.0433X0.0492*%
%ADD13O,0.0551X0.0138*%
%ADD14R,0.0669X0.0236*%
%ADD15R,0.0374X0.0236*%
%ADD16O,0.0610X0.0098*%
%ADD17O,0.0098X0.0610*%
%ADD18R,0.0354X0.0413*%
%ADD20R,0.0512X0.0689*%
%ADD21O,0.0650X0.0217*%
%ADD22R,0.0650X0.0217*%
D10*
X28300Y25900D02*
D03*
X27631Y25900D02*
D03*
X27300Y45250D02*
D03*
X27969D02*
D03*
X23000Y44100D02*
D03*
X22331D02*
D03*
X22950Y42500D02*
D03*
X22281D02*
D03*
X22421Y24880D02*
D03*
X23090D02*
D03*
D11*
X22900Y21538D02*
D03*
Y22562D02*
D03*
X22000Y21538D02*
D03*
Y22562D02*
D03*
D12*
X22300Y37650D02*
D03*
Y38319D02*
D03*
Y35350D02*
D03*
Y34681D02*
D03*
Y39550D02*
D03*
Y40219D02*
D03*
X23710Y30851D02*
D03*
Y31520D02*
D03*
X25810Y25239D02*
D03*
Y24570D02*
D03*
X26160Y31451D02*
D03*
Y32120D02*
D03*
D13*
X25798Y44752D02*
D03*
Y44496D02*
D03*
Y44240D02*
D03*
Y43984D02*
D03*
Y43728D02*
D03*
Y43472D02*
D03*
Y43216D02*
D03*
Y42960D02*
D03*
Y42704D02*
D03*
Y42448D02*
D03*
X28002Y44752D02*
D03*
Y44496D02*
D03*
Y44240D02*
D03*
Y43984D02*
D03*
Y43728D02*
D03*
Y43472D02*
D03*
Y43216D02*
D03*
Y42960D02*
D03*
Y42704D02*
D03*
Y42448D02*
D03*
X24812Y44748D02*
D03*
Y45004D02*
D03*
Y45260D02*
D03*
Y45516D02*
D03*
Y45772D02*
D03*
Y46028D02*
D03*
Y46284D02*
D03*
Y46540D02*
D03*
Y46796D02*
D03*
Y47052D02*
D03*
X22608Y44748D02*
D03*
Y45004D02*
D03*
Y45260D02*
D03*
Y45516D02*
D03*
Y45772D02*
D03*
Y46028D02*
D03*
Y46284D02*
D03*
Y46540D02*
D03*
Y46796D02*
D03*
Y47052D02*
D03*
D14*
X22844Y20226D02*
D03*
Y20974D02*
D03*
X22056Y20600D02*
D03*
D15*
X22883Y25586D02*
D03*
Y25960D02*
D03*
Y26334D02*
D03*
X21997Y25586D02*
D03*
Y25960D02*
D03*
Y26334D02*
D03*
D16*
X23475Y29896D02*
D03*
Y29700D02*
D03*
Y29503D02*
D03*
Y29306D02*
D03*
Y29109D02*
D03*
Y28912D02*
D03*
Y28715D02*
D03*
Y28518D02*
D03*
Y28322D02*
D03*
Y28125D02*
D03*
Y27928D02*
D03*
Y27731D02*
D03*
Y27534D02*
D03*
Y27337D02*
D03*
Y27140D02*
D03*
Y26944D02*
D03*
X27825D02*
D03*
Y27140D02*
D03*
Y27337D02*
D03*
Y27534D02*
D03*
Y27731D02*
D03*
Y27928D02*
D03*
Y28125D02*
D03*
Y28322D02*
D03*
Y28518D02*
D03*
Y28715D02*
D03*
Y28912D02*
D03*
Y29109D02*
D03*
Y29306D02*
D03*
Y29503D02*
D03*
Y29700D02*
D03*
Y29896D02*
D03*
D17*
X24174Y26245D02*
D03*
X24370D02*
D03*
X24567D02*
D03*
X24764D02*
D03*
X24961D02*
D03*
X25158D02*
D03*
X25355D02*
D03*
X25552D02*
D03*
X25748D02*
D03*
X25945D02*
D03*
X26142D02*
D03*
X26339D02*
D03*
X26536D02*
D03*
X26733D02*
D03*
X26930D02*
D03*
X27126D02*
D03*
Y30595D02*
D03*
X26930D02*
D03*
X26733D02*
D03*
X26536D02*
D03*
X26339D02*
D03*
X26142D02*
D03*
X25945D02*
D03*
X25748D02*
D03*
X25552D02*
D03*
X25355D02*
D03*
X25158D02*
D03*
X24961D02*
D03*
X24764D02*
D03*
X24567D02*
D03*
X24370D02*
D03*
X24174D02*
D03*
D18*
X21984Y23750D02*
D03*
X22516D02*
D03*
D20*
X22791Y33430D02*
D03*
X21590D02*
D03*
X27599Y32800D02*
D03*
X28800D02*
D03*
D21*
X27551Y34241D02*
D03*
Y34556D02*
D03*
Y34871D02*
D03*
Y35186D02*
D03*
Y35501D02*
D03*
Y35816D02*
D03*
Y36131D02*
D03*
Y36446D02*
D03*
Y36761D02*
D03*
Y37076D02*
D03*
Y37391D02*
D03*
Y37706D02*
D03*
Y38020D02*
D03*
Y38335D02*
D03*
Y38650D02*
D03*
Y38965D02*
D03*
Y39280D02*
D03*
Y39595D02*
D03*
Y39910D02*
D03*
Y40225D02*
D03*
Y40540D02*
D03*
Y40855D02*
D03*
Y41170D02*
D03*
Y41485D02*
D03*
Y41800D02*
D03*
X23000Y34241D02*
D03*
Y34556D02*
D03*
Y34871D02*
D03*
Y35186D02*
D03*
Y35501D02*
D03*
Y35816D02*
D03*
Y36131D02*
D03*
Y36446D02*
D03*
Y36761D02*
D03*
Y37076D02*
D03*
Y37391D02*
D03*
Y37706D02*
D03*
Y38020D02*
D03*
Y38335D02*
D03*
Y38650D02*
D03*
Y38965D02*
D03*
Y39280D02*
D03*
Y39595D02*
D03*
Y39910D02*
D03*
Y40225D02*
D03*
Y40540D02*
D03*
Y40855D02*
D03*
Y41170D02*
D03*
Y41485D02*
D03*
D22*
Y41800D02*
D03*
M02*
