G04 Layer_Color=25308*
%FSLAX24Y24*%
%MOIN*%
G70*
G01*
G75*
%ADD28C,0.0591*%
%ADD29R,0.0591X0.0591*%
%ADD30O,0.0591X0.1200*%
G04:AMPARAMS|DCode=31|XSize=78.7mil|YSize=78.7mil|CornerRadius=19.7mil|HoleSize=0mil|Usage=FLASHONLY|Rotation=0.000|XOffset=0mil|YOffset=0mil|HoleType=Round|Shape=RoundedRectangle|*
%AMROUNDEDRECTD31*
21,1,0.0787,0.0394,0,0,0.0*
21,1,0.0394,0.0787,0,0,0.0*
1,1,0.0394,0.0197,-0.0197*
1,1,0.0394,-0.0197,-0.0197*
1,1,0.0394,-0.0197,0.0197*
1,1,0.0394,0.0197,0.0197*
%
%ADD31ROUNDEDRECTD31*%
%ADD33R,0.0200X0.0400*%
D28*
X27950Y23800D02*
D03*
Y22800D02*
D03*
Y21800D02*
D03*
Y20800D02*
D03*
Y19800D02*
D03*
D29*
Y18800D02*
D03*
D30*
X26450Y18550D02*
D03*
X25450D02*
D03*
X24450D02*
D03*
X23450D02*
D03*
D31*
X20750Y47800D02*
D03*
Y46800D02*
D03*
Y45800D02*
D03*
Y44800D02*
D03*
Y43800D02*
D03*
Y42800D02*
D03*
Y41800D02*
D03*
Y40800D02*
D03*
Y39800D02*
D03*
Y38800D02*
D03*
Y37800D02*
D03*
Y36800D02*
D03*
Y35800D02*
D03*
Y34800D02*
D03*
Y33800D02*
D03*
Y32800D02*
D03*
Y31800D02*
D03*
Y30800D02*
D03*
Y29800D02*
D03*
Y28800D02*
D03*
Y27800D02*
D03*
Y26800D02*
D03*
Y25800D02*
D03*
Y24800D02*
D03*
Y23800D02*
D03*
Y22800D02*
D03*
Y21800D02*
D03*
Y20800D02*
D03*
Y19800D02*
D03*
Y18800D02*
D03*
Y17800D02*
D03*
Y16800D02*
D03*
X29750Y47800D02*
D03*
Y46800D02*
D03*
Y45800D02*
D03*
Y44800D02*
D03*
Y43800D02*
D03*
Y42800D02*
D03*
Y41800D02*
D03*
Y40800D02*
D03*
Y39800D02*
D03*
Y38800D02*
D03*
Y37800D02*
D03*
Y36800D02*
D03*
Y35800D02*
D03*
Y34800D02*
D03*
Y33800D02*
D03*
Y32800D02*
D03*
Y31800D02*
D03*
Y30800D02*
D03*
Y29800D02*
D03*
Y28800D02*
D03*
Y27800D02*
D03*
Y26800D02*
D03*
Y25800D02*
D03*
Y24800D02*
D03*
Y23800D02*
D03*
Y22800D02*
D03*
Y21800D02*
D03*
Y20800D02*
D03*
Y19800D02*
D03*
Y18800D02*
D03*
Y17800D02*
D03*
Y16800D02*
D03*
D33*
X22240Y26360D02*
D03*
X22590D02*
D03*
X22240Y25710D02*
D03*
X22590D02*
D03*
M02*
