G04 Layer_Color=15132400*
%FSLAX24Y24*%
%MOIN*%
G70*
G01*
G75*
%ADD26C,0.0080*%
%ADD27C,0.0100*%
%ADD34C,0.0039*%
%ADD35C,0.0098*%
%ADD36C,0.0236*%
%ADD37C,0.0079*%
%ADD38C,0.0050*%
%ADD39C,0.0060*%
D26*
X25550Y45650D02*
Y45317D01*
X25617Y45250D01*
X25750D01*
X25817Y45317D01*
Y45650D01*
X25950D02*
X26216D01*
Y45583D01*
X25950Y45317D01*
Y45250D01*
X22350Y47750D02*
Y47417D01*
X22417Y47350D01*
X22550D01*
X22617Y47417D01*
Y47750D01*
X23016D02*
X22883Y47683D01*
X22750Y47550D01*
Y47417D01*
X22817Y47350D01*
X22950D01*
X23016Y47417D01*
Y47483D01*
X22950Y47550D01*
X22750D01*
X21550Y19650D02*
X21883D01*
X21950Y19717D01*
Y19850D01*
X21883Y19917D01*
X21550D01*
Y20316D02*
Y20050D01*
X21750D01*
X21683Y20183D01*
Y20250D01*
X21750Y20316D01*
X21883D01*
X21950Y20250D01*
Y20117D01*
X21883Y20050D01*
X21997Y27367D02*
Y27034D01*
X22064Y26967D01*
X22197D01*
X22264Y27034D01*
Y27367D01*
X22597Y26967D02*
Y27367D01*
X22397Y27167D01*
X22664D01*
X24184Y31493D02*
Y31160D01*
X24251Y31093D01*
X24384D01*
X24451Y31160D01*
Y31493D01*
X24584Y31093D02*
X24717D01*
X24651D01*
Y31493D01*
X24584Y31426D01*
X21700Y24050D02*
Y24450D01*
X21900D01*
X21967Y24383D01*
Y24250D01*
X21900Y24183D01*
X21700D01*
X21833D02*
X21967Y24050D01*
X22100D02*
X22233D01*
X22167D01*
Y24450D01*
X22100Y24383D01*
X24617Y24050D02*
X24483D01*
X24550D01*
Y23717D01*
X24483Y23650D01*
X24417D01*
X24350Y23717D01*
X24750Y23650D02*
X24883D01*
X24817D01*
Y24050D01*
X24750Y23983D01*
X21917Y32900D02*
X21650D01*
Y32700D01*
X21783D01*
X21650D01*
Y32500D01*
X22050Y32900D02*
Y32500D01*
X22250D01*
X22316Y32567D01*
Y32633D01*
X22250Y32700D01*
X22050D01*
X22250D01*
X22316Y32767D01*
Y32833D01*
X22250Y32900D01*
X22050D01*
X22716Y32500D02*
X22450D01*
X22716Y32767D01*
Y32833D01*
X22650Y32900D01*
X22516D01*
X22450Y32833D01*
X28017Y32250D02*
X27750D01*
Y32050D01*
X27883D01*
X27750D01*
Y31850D01*
X28150Y32250D02*
Y31850D01*
X28350D01*
X28416Y31917D01*
Y31983D01*
X28350Y32050D01*
X28150D01*
X28350D01*
X28416Y32117D01*
Y32183D01*
X28350Y32250D01*
X28150D01*
X28550Y31850D02*
X28683D01*
X28616D01*
Y32250D01*
X28550Y32183D01*
X22877Y31037D02*
X22810Y30970D01*
Y30837D01*
X22877Y30770D01*
X23143D01*
X23210Y30837D01*
Y30970D01*
X23143Y31037D01*
X23210Y31170D02*
Y31303D01*
Y31237D01*
X22810D01*
X22877Y31170D01*
X23210Y31503D02*
Y31636D01*
Y31570D01*
X22810D01*
X22877Y31503D01*
X26277Y24687D02*
X26210Y24620D01*
Y24487D01*
X26277Y24420D01*
X26543D01*
X26610Y24487D01*
Y24620D01*
X26543Y24687D01*
X26610Y24820D02*
Y24953D01*
Y24887D01*
X26210D01*
X26277Y24820D01*
Y25153D02*
X26210Y25220D01*
Y25353D01*
X26277Y25420D01*
X26543D01*
X26610Y25353D01*
Y25220D01*
X26543Y25153D01*
X26277D01*
X26677Y31687D02*
X26610Y31620D01*
Y31487D01*
X26677Y31420D01*
X26943D01*
X27010Y31487D01*
Y31620D01*
X26943Y31687D01*
X26677Y31820D02*
X26610Y31887D01*
Y32020D01*
X26677Y32086D01*
X26743D01*
X26810Y32020D01*
X26877Y32086D01*
X26943D01*
X27010Y32020D01*
Y31887D01*
X26943Y31820D01*
X26877D01*
X26810Y31887D01*
X26743Y31820D01*
X26677D01*
X26810Y31887D02*
Y32020D01*
X21767Y25033D02*
X21700Y25100D01*
X21567D01*
X21500Y25033D01*
Y24767D01*
X21567Y24700D01*
X21700D01*
X21767Y24767D01*
X21900Y24700D02*
X22033D01*
X21967D01*
Y25100D01*
X21900Y25033D01*
X21667Y23333D02*
X21600Y23400D01*
X21467D01*
X21400Y23333D01*
Y23067D01*
X21467Y23000D01*
X21600D01*
X21667Y23067D01*
X22066Y23000D02*
X21800D01*
X22066Y23267D01*
Y23333D01*
X22000Y23400D01*
X21867D01*
X21800Y23333D01*
X22517D02*
X22450Y23400D01*
X22317D01*
X22250Y23333D01*
Y23067D01*
X22317Y23000D01*
X22450D01*
X22517Y23067D01*
X22650Y23333D02*
X22717Y23400D01*
X22850D01*
X22916Y23333D01*
Y23267D01*
X22850Y23200D01*
X22783D01*
X22850D01*
X22916Y23133D01*
Y23067D01*
X22850Y23000D01*
X22717D01*
X22650Y23067D01*
X23667Y42633D02*
X23600Y42700D01*
X23467D01*
X23400Y42633D01*
Y42367D01*
X23467Y42300D01*
X23600D01*
X23667Y42367D01*
X24000Y42300D02*
Y42700D01*
X23800Y42500D01*
X24066D01*
X21547Y39786D02*
X21480Y39720D01*
Y39587D01*
X21547Y39520D01*
X21813D01*
X21880Y39587D01*
Y39720D01*
X21813Y39786D01*
X21480Y40186D02*
Y39920D01*
X21680D01*
X21613Y40053D01*
Y40120D01*
X21680Y40186D01*
X21813D01*
X21880Y40120D01*
Y39986D01*
X21813Y39920D01*
X21517Y38017D02*
X21450Y37950D01*
Y37817D01*
X21517Y37750D01*
X21783D01*
X21850Y37817D01*
Y37950D01*
X21783Y38017D01*
X21450Y38416D02*
X21517Y38283D01*
X21650Y38150D01*
X21783D01*
X21850Y38217D01*
Y38350D01*
X21783Y38416D01*
X21717D01*
X21650Y38350D01*
Y38150D01*
X21517Y35017D02*
X21450Y34950D01*
Y34817D01*
X21517Y34750D01*
X21783D01*
X21850Y34817D01*
Y34950D01*
X21783Y35017D01*
X21450Y35150D02*
Y35416D01*
X21517D01*
X21783Y35150D01*
X21850D01*
X27917Y25483D02*
X27850Y25550D01*
X27717D01*
X27650Y25483D01*
Y25217D01*
X27717Y25150D01*
X27850D01*
X27917Y25217D01*
X28050D02*
X28117Y25150D01*
X28250D01*
X28316Y25217D01*
Y25483D01*
X28250Y25550D01*
X28117D01*
X28050Y25483D01*
Y25417D01*
X28117Y25350D01*
X28316D01*
X23667Y44233D02*
X23600Y44300D01*
X23467D01*
X23400Y44233D01*
Y43967D01*
X23467Y43900D01*
X23600D01*
X23667Y43967D01*
X23800Y43900D02*
X23933D01*
X23867D01*
Y44300D01*
X23800Y44233D01*
X24400Y43900D02*
X24133D01*
X24400Y44167D01*
Y44233D01*
X24333Y44300D01*
X24200D01*
X24133Y44233D01*
X27367Y45933D02*
X27300Y46000D01*
X27167D01*
X27100Y45933D01*
Y45667D01*
X27167Y45600D01*
X27300D01*
X27367Y45667D01*
X27500Y45600D02*
X27633D01*
X27567D01*
Y46000D01*
X27500Y45933D01*
X27833D02*
X27900Y46000D01*
X28033D01*
X28100Y45933D01*
Y45867D01*
X28033Y45800D01*
X27966D01*
X28033D01*
X28100Y45733D01*
Y45667D01*
X28033Y45600D01*
X27900D01*
X27833Y45667D01*
X23467Y19667D02*
X23400Y19600D01*
Y19467D01*
X23467Y19400D01*
X23733D01*
X23800Y19467D01*
Y19600D01*
X23733Y19667D01*
X23600D01*
Y19533D01*
X23800Y19800D02*
X23400D01*
X23800Y20066D01*
X23400D01*
Y20200D02*
X23800D01*
Y20400D01*
X23733Y20466D01*
X23467D01*
X23400Y20400D01*
Y20200D01*
X26317Y19667D02*
X26250Y19600D01*
Y19467D01*
X26317Y19400D01*
X26583D01*
X26650Y19467D01*
Y19600D01*
X26583Y19667D01*
X26450D01*
Y19533D01*
X26650Y19800D02*
X26250D01*
X26650Y20066D01*
X26250D01*
Y20200D02*
X26650D01*
Y20400D01*
X26583Y20466D01*
X26317D01*
X26250Y20400D01*
Y20200D01*
X25267Y19667D02*
X25200Y19600D01*
Y19467D01*
X25267Y19400D01*
X25533D01*
X25600Y19467D01*
Y19600D01*
X25533Y19667D01*
X25200Y20066D02*
Y19800D01*
X25400D01*
Y19933D01*
Y19800D01*
X25600D01*
X25267Y20466D02*
X25200Y20400D01*
Y20266D01*
X25267Y20200D01*
X25533D01*
X25600Y20266D01*
Y20400D01*
X25533Y20466D01*
X25400D01*
Y20333D01*
X25200Y20800D02*
Y20666D01*
X25267Y20600D01*
X25533D01*
X25600Y20666D01*
Y20800D01*
X25533Y20866D01*
X25267D01*
X25200Y20800D01*
Y20999D02*
X25533D01*
X25600Y21066D01*
Y21199D01*
X25533Y21266D01*
X25200D01*
Y21399D02*
Y21666D01*
Y21533D01*
X25600D01*
X24267Y19667D02*
X24200Y19600D01*
Y19467D01*
X24267Y19400D01*
X24533D01*
X24600Y19467D01*
Y19600D01*
X24533Y19667D01*
X24200Y20066D02*
Y19800D01*
X24400D01*
Y19933D01*
Y19800D01*
X24600D01*
X24267Y20466D02*
X24200Y20400D01*
Y20266D01*
X24267Y20200D01*
X24533D01*
X24600Y20266D01*
Y20400D01*
X24533Y20466D01*
X24400D01*
Y20333D01*
X24200Y20600D02*
Y20733D01*
Y20666D01*
X24600D01*
Y20600D01*
Y20733D01*
Y20933D02*
X24200D01*
X24600Y21199D01*
X24200D01*
D27*
X22400Y41800D02*
G03*
X22400Y41800I-50J0D01*
G01*
X24650Y48100D02*
G03*
X25850Y48100I600J0D01*
G01*
X21250D02*
X24650D01*
X25850D02*
X29250D01*
D34*
X23370Y21100D02*
G03*
X23370Y21100I-20J0D01*
G01*
X21665Y21105D02*
G03*
X21665Y21105I-20J0D01*
G01*
D35*
X25847Y45037D02*
G03*
X25847Y45037I-49J0D01*
G01*
X24862Y44463D02*
G03*
X24862Y44463I-49J0D01*
G01*
X22893Y19891D02*
G03*
X22893Y19891I-49J0D01*
G01*
X22046Y26669D02*
G03*
X22046Y26669I-49J0D01*
G01*
X23524Y30162D02*
G03*
X23524Y30162I-49J0D01*
G01*
D36*
X26743Y44506D02*
G03*
X26743Y44506I-118J0D01*
G01*
X24104Y44994D02*
G03*
X24104Y44994I-118J0D01*
G01*
X24449Y29739D02*
G03*
X24449Y29739I-118J0D01*
G01*
D37*
X25197Y41957D02*
G03*
X25354Y41957I79J0D01*
G01*
X23254Y21971D02*
Y22129D01*
X22546Y21971D02*
Y22129D01*
X22354Y21971D02*
Y22129D01*
X21646Y21971D02*
Y22129D01*
X26231Y42301D02*
Y44899D01*
X27569Y42301D02*
Y44899D01*
X26231D02*
X27569D01*
X26231Y42301D02*
X27569D01*
X24379Y44601D02*
Y47199D01*
X23041Y44601D02*
Y47199D01*
Y44601D02*
X24379D01*
X23041Y47199D02*
X24379D01*
X22174Y20009D02*
X22371D01*
X22174D02*
Y20324D01*
Y21191D02*
X22371D01*
X22174Y20876D02*
Y21191D01*
X22342Y25369D02*
X22538D01*
X22342Y26551D02*
X22538D01*
Y25369D02*
Y26551D01*
X22342Y25369D02*
Y26551D01*
X23937Y26707D02*
Y30133D01*
X27363Y26707D02*
Y30133D01*
X23937D02*
X27363D01*
X23937Y26707D02*
X27363D01*
X21994Y33125D02*
X22387D01*
X21994Y33735D02*
X22387D01*
X28003Y33105D02*
X28396D01*
X28003Y32495D02*
X28396D01*
X23654Y34083D02*
Y41957D01*
Y34083D02*
X26898D01*
Y41957D01*
X25354D02*
X26898D01*
X23654D02*
X25197D01*
D38*
X27450Y18300D02*
X28450D01*
Y24300D01*
X27450D02*
X28450D01*
X27450Y18300D02*
Y24300D01*
D39*
X23600Y23670D02*
Y23350D01*
X23813D01*
X24080Y23670D02*
X23973D01*
X23920Y23617D01*
Y23403D01*
X23973Y23350D01*
X24080D01*
X24133Y23403D01*
Y23617D01*
X24080Y23670D01*
X23600Y24270D02*
Y23950D01*
Y24110D01*
X23813D01*
Y24270D01*
Y23950D01*
X23920Y24270D02*
X24027D01*
X23973D01*
Y23950D01*
X23920D01*
X24027D01*
X28630Y18400D02*
Y18613D01*
Y18507D01*
X28950D01*
Y18720D02*
X28630D01*
X28737Y18827D01*
X28630Y18933D01*
X28950D01*
X28683Y19253D02*
X28630Y19200D01*
Y19093D01*
X28683Y19040D01*
X28737D01*
X28790Y19093D01*
Y19200D01*
X28843Y19253D01*
X28897D01*
X28950Y19200D01*
Y19093D01*
X28897Y19040D01*
X28630Y19400D02*
Y19613D01*
Y19507D01*
X28950D01*
X28630Y19720D02*
X28950D01*
Y19880D01*
X28897Y19933D01*
X28683D01*
X28630Y19880D01*
Y19720D01*
Y20040D02*
Y20146D01*
Y20093D01*
X28950D01*
Y20040D01*
Y20146D01*
X28630Y20400D02*
Y20613D01*
Y20507D01*
X28950D01*
X28630Y20720D02*
X28950D01*
Y20880D01*
X28897Y20933D01*
X28683D01*
X28630Y20880D01*
Y20720D01*
Y21200D02*
Y21093D01*
X28683Y21040D01*
X28897D01*
X28950Y21093D01*
Y21200D01*
X28897Y21253D01*
X28683D01*
X28630Y21200D01*
Y21400D02*
Y21613D01*
Y21507D01*
X28950D01*
X28683Y21933D02*
X28630Y21880D01*
Y21773D01*
X28683Y21720D01*
X28897D01*
X28950Y21773D01*
Y21880D01*
X28897Y21933D01*
X28630Y22040D02*
X28950D01*
X28843D01*
X28630Y22253D01*
X28790Y22093D01*
X28950Y22253D01*
X28683Y22613D02*
X28630Y22560D01*
Y22453D01*
X28683Y22400D01*
X28897D01*
X28950Y22453D01*
Y22560D01*
X28897Y22613D01*
X28790D01*
Y22507D01*
X28950Y22720D02*
X28630D01*
X28950Y22933D01*
X28630D01*
Y23040D02*
X28950D01*
Y23200D01*
X28897Y23253D01*
X28683D01*
X28630Y23200D01*
Y23040D01*
X28790Y23400D02*
Y23613D01*
X28683Y23507D02*
X28897D01*
X28683Y23720D02*
X28630Y23773D01*
Y23880D01*
X28683Y23933D01*
X28737D01*
X28790Y23880D01*
Y23827D01*
Y23880D01*
X28843Y23933D01*
X28897D01*
X28950Y23880D01*
Y23773D01*
X28897Y23720D01*
X28630Y24040D02*
X28843D01*
X28950Y24146D01*
X28843Y24253D01*
X28630D01*
M02*
