G04 Layer_Color=15132400*
%FSLAX24Y24*%
%MOIN*%
G70*
G01*
G75*
%ADD26C,0.0100*%
%ADD33C,0.0039*%
%ADD34C,0.0236*%
%ADD35C,0.0098*%
%ADD36C,0.0079*%
%ADD37C,0.0050*%
%ADD38C,0.0080*%
%ADD39C,0.0060*%
D26*
X24650Y48100D02*
G03*
X25850Y48100I600J0D01*
G01*
X23200Y46500D02*
G03*
X23200Y46500I-50J0D01*
G01*
X25850Y48100D02*
X29250D01*
X21250D02*
X24650D01*
D33*
X28215Y34066D02*
G03*
X28215Y34066I-20J0D01*
G01*
X26995Y37444D02*
G03*
X26995Y37444I-20J0D01*
G01*
X23688Y35018D02*
G03*
X23688Y35018I-20J0D01*
G01*
D34*
X24089Y30619D02*
G03*
X24089Y30619I-118J0D01*
G01*
D35*
X23164Y31042D02*
G03*
X23164Y31042I-49J0D01*
G01*
X21906Y27259D02*
G03*
X21906Y27259I-49J0D01*
G01*
X28528Y36204D02*
G03*
X28528Y36204I-49J0D01*
G01*
D36*
X25397Y46307D02*
G03*
X25554Y46307I79J0D01*
G01*
X22354Y36305D02*
X22747D01*
X22354Y35695D02*
X22747D01*
X27171Y34774D02*
X27329D01*
X27171Y34066D02*
X27329D01*
X27841Y36736D02*
X27999D01*
X27841Y37444D02*
X27999D01*
X28153Y32495D02*
X28546D01*
X28153Y33105D02*
X28546D01*
X23577Y27587D02*
X27003D01*
X23577Y31013D02*
X27003D01*
Y27587D02*
Y31013D01*
X23577Y27587D02*
Y31013D01*
X22202Y25959D02*
Y27141D01*
X22398Y25959D02*
Y27141D01*
X22202D02*
X22398D01*
X22202Y25959D02*
X22398D01*
X27179Y35534D02*
X27494D01*
X27179D02*
Y35731D01*
X28046Y35534D02*
X28361D01*
Y35731D01*
X22444Y34795D02*
X22555Y34906D01*
X22945Y34294D02*
X23056Y34405D01*
X23854Y46307D02*
X25397D01*
X25554D02*
X27098D01*
Y38433D02*
Y46307D01*
X23854Y38433D02*
X27098D01*
X23854D02*
Y46307D01*
D37*
X27450Y18300D02*
Y24300D01*
X28450D01*
Y18300D02*
Y24300D01*
X27450Y18300D02*
X28450D01*
D38*
X23667Y25633D02*
X23600Y25700D01*
X23467D01*
X23400Y25633D01*
Y25367D01*
X23467Y25300D01*
X23600D01*
X23667Y25367D01*
X23800Y25300D02*
X23933D01*
X23867D01*
Y25700D01*
X23800Y25633D01*
X27167Y33783D02*
X27100Y33850D01*
X26967D01*
X26900Y33783D01*
Y33517D01*
X26967Y33450D01*
X27100D01*
X27167Y33517D01*
X27566Y33450D02*
X27300D01*
X27566Y33717D01*
Y33783D01*
X27500Y33850D01*
X27367D01*
X27300Y33783D01*
X27817Y37983D02*
X27750Y38050D01*
X27617D01*
X27550Y37983D01*
Y37717D01*
X27617Y37650D01*
X27750D01*
X27817Y37717D01*
X27950Y37983D02*
X28017Y38050D01*
X28150D01*
X28216Y37983D01*
Y37917D01*
X28150Y37850D01*
X28083D01*
X28150D01*
X28216Y37783D01*
Y37717D01*
X28150Y37650D01*
X28017D01*
X27950Y37717D01*
X21717Y38917D02*
X21650Y38850D01*
Y38717D01*
X21717Y38650D01*
X21983D01*
X22050Y38717D01*
Y38850D01*
X21983Y38917D01*
X22050Y39250D02*
X21650D01*
X21850Y39050D01*
Y39316D01*
X21717Y42217D02*
X21650Y42150D01*
Y42017D01*
X21717Y41950D01*
X21983D01*
X22050Y42017D01*
Y42150D01*
X21983Y42217D01*
X21650Y42616D02*
Y42350D01*
X21850D01*
X21783Y42483D01*
Y42550D01*
X21850Y42616D01*
X21983D01*
X22050Y42550D01*
Y42417D01*
X21983Y42350D01*
X21717Y44017D02*
X21650Y43950D01*
Y43817D01*
X21717Y43750D01*
X21983D01*
X22050Y43817D01*
Y43950D01*
X21983Y44017D01*
X21650Y44416D02*
X21717Y44283D01*
X21850Y44150D01*
X21983D01*
X22050Y44217D01*
Y44350D01*
X21983Y44416D01*
X21917D01*
X21850Y44350D01*
Y44150D01*
X21717Y45717D02*
X21650Y45650D01*
Y45517D01*
X21717Y45450D01*
X21983D01*
X22050Y45517D01*
Y45650D01*
X21983Y45717D01*
X21650Y45850D02*
Y46116D01*
X21717D01*
X21983Y45850D01*
X22050D01*
X26317Y32567D02*
X26250Y32500D01*
Y32367D01*
X26317Y32300D01*
X26583D01*
X26650Y32367D01*
Y32500D01*
X26583Y32567D01*
X26317Y32700D02*
X26250Y32767D01*
Y32900D01*
X26317Y32966D01*
X26383D01*
X26450Y32900D01*
X26517Y32966D01*
X26583D01*
X26650Y32900D01*
Y32767D01*
X26583Y32700D01*
X26517D01*
X26450Y32767D01*
X26383Y32700D01*
X26317D01*
X26450Y32767D02*
Y32900D01*
X28374Y27597D02*
Y27691D01*
X28280Y27786D01*
X28186D01*
X27997Y27597D01*
Y27503D01*
X28091Y27409D01*
X28186D01*
X28280Y27314D02*
Y27220D01*
X28374Y27126D01*
X28468D01*
X28657Y27314D01*
Y27409D01*
X28563Y27503D01*
X28468D01*
X28421Y27456D01*
Y27362D01*
X28563Y27220D01*
X25917Y25567D02*
X25850Y25500D01*
Y25367D01*
X25917Y25300D01*
X26183D01*
X26250Y25367D01*
Y25500D01*
X26183Y25567D01*
X26250Y25700D02*
Y25833D01*
Y25767D01*
X25850D01*
X25917Y25700D01*
Y26033D02*
X25850Y26100D01*
Y26233D01*
X25917Y26300D01*
X26183D01*
X26250Y26233D01*
Y26100D01*
X26183Y26033D01*
X25917D01*
X22517Y31917D02*
X22450Y31850D01*
Y31717D01*
X22517Y31650D01*
X22783D01*
X22850Y31717D01*
Y31850D01*
X22783Y31917D01*
X22850Y32050D02*
Y32183D01*
Y32117D01*
X22450D01*
X22517Y32050D01*
X22850Y32383D02*
Y32516D01*
Y32450D01*
X22450D01*
X22517Y32383D01*
X28167Y32250D02*
X27900D01*
Y32050D01*
X28033D01*
X27900D01*
Y31850D01*
X28300Y32250D02*
Y31850D01*
X28500D01*
X28566Y31917D01*
Y31983D01*
X28500Y32050D01*
X28300D01*
X28500D01*
X28566Y32117D01*
Y32183D01*
X28500Y32250D01*
X28300D01*
X28700Y31850D02*
X28833D01*
X28766D01*
Y32250D01*
X28700Y32183D01*
X22267Y36950D02*
X22000D01*
Y36750D01*
X22133D01*
X22000D01*
Y36550D01*
X22400Y36950D02*
Y36550D01*
X22600D01*
X22666Y36617D01*
Y36683D01*
X22600Y36750D01*
X22400D01*
X22600D01*
X22666Y36817D01*
Y36883D01*
X22600Y36950D01*
X22400D01*
X23066Y36550D02*
X22800D01*
X23066Y36817D01*
Y36883D01*
X23000Y36950D01*
X22866D01*
X22800Y36883D01*
X24517Y24650D02*
X24383D01*
X24450D01*
Y24317D01*
X24383Y24250D01*
X24317D01*
X24250Y24317D01*
X24650Y24250D02*
X24783D01*
X24717D01*
Y24650D01*
X24650Y24583D01*
X21800Y23550D02*
Y23950D01*
X22000D01*
X22067Y23883D01*
Y23750D01*
X22000Y23683D01*
X21800D01*
X21933D02*
X22067Y23550D01*
X22200D02*
X22333D01*
X22267D01*
Y23950D01*
X22200Y23883D01*
X23824Y32373D02*
Y32040D01*
X23891Y31973D01*
X24024D01*
X24091Y32040D01*
Y32373D01*
X24224Y31973D02*
X24357D01*
X24291D01*
Y32373D01*
X24224Y32306D01*
X21857Y27957D02*
Y27624D01*
X21924Y27557D01*
X22057D01*
X22124Y27624D01*
Y27957D01*
X22457Y27557D02*
Y27957D01*
X22257Y27757D01*
X22524D01*
X26600Y35700D02*
X26933D01*
X27000Y35767D01*
Y35900D01*
X26933Y35967D01*
X26600D01*
Y36366D02*
Y36100D01*
X26800D01*
X26733Y36233D01*
Y36300D01*
X26800Y36366D01*
X26933D01*
X27000Y36300D01*
Y36167D01*
X26933Y36100D01*
X23003Y33974D02*
X22909D01*
X22814Y33880D01*
Y33786D01*
X23003Y33597D01*
X23097D01*
X23191Y33691D01*
Y33786D01*
X23333Y33833D02*
X23427Y33927D01*
X23380Y33880D01*
X23097Y34163D01*
Y34068D01*
X23757Y34257D02*
X23568Y34068D01*
Y34445D01*
X23521Y34493D01*
X23427D01*
X23333Y34398D01*
Y34304D01*
X24267Y19667D02*
X24200Y19600D01*
Y19467D01*
X24267Y19400D01*
X24533D01*
X24600Y19467D01*
Y19600D01*
X24533Y19667D01*
X24200Y20066D02*
Y19800D01*
X24400D01*
Y19933D01*
Y19800D01*
X24600D01*
X24267Y20466D02*
X24200Y20400D01*
Y20266D01*
X24267Y20200D01*
X24533D01*
X24600Y20266D01*
Y20400D01*
X24533Y20466D01*
X24400D01*
Y20333D01*
X24200Y20600D02*
Y20733D01*
Y20666D01*
X24600D01*
Y20600D01*
Y20733D01*
Y20933D02*
X24200D01*
X24600Y21199D01*
X24200D01*
X25267Y19667D02*
X25200Y19600D01*
Y19467D01*
X25267Y19400D01*
X25533D01*
X25600Y19467D01*
Y19600D01*
X25533Y19667D01*
X25200Y20066D02*
Y19800D01*
X25400D01*
Y19933D01*
Y19800D01*
X25600D01*
X25267Y20466D02*
X25200Y20400D01*
Y20266D01*
X25267Y20200D01*
X25533D01*
X25600Y20266D01*
Y20400D01*
X25533Y20466D01*
X25400D01*
Y20333D01*
X25200Y20800D02*
Y20666D01*
X25267Y20600D01*
X25533D01*
X25600Y20666D01*
Y20800D01*
X25533Y20866D01*
X25267D01*
X25200Y20800D01*
Y20999D02*
X25533D01*
X25600Y21066D01*
Y21199D01*
X25533Y21266D01*
X25200D01*
Y21399D02*
Y21666D01*
Y21533D01*
X25600D01*
X26317Y19667D02*
X26250Y19600D01*
Y19467D01*
X26317Y19400D01*
X26583D01*
X26650Y19467D01*
Y19600D01*
X26583Y19667D01*
X26450D01*
Y19533D01*
X26650Y19800D02*
X26250D01*
X26650Y20066D01*
X26250D01*
Y20200D02*
X26650D01*
Y20400D01*
X26583Y20466D01*
X26317D01*
X26250Y20400D01*
Y20200D01*
X23317Y19667D02*
X23250Y19600D01*
Y19467D01*
X23317Y19400D01*
X23583D01*
X23650Y19467D01*
Y19600D01*
X23583Y19667D01*
X23450D01*
Y19533D01*
X23650Y19800D02*
X23250D01*
X23650Y20066D01*
X23250D01*
Y20200D02*
X23650D01*
Y20400D01*
X23583Y20466D01*
X23317D01*
X23250Y20400D01*
Y20200D01*
D39*
X28790Y23400D02*
Y23613D01*
X28683Y23507D02*
X28897D01*
X28683Y23720D02*
X28630Y23773D01*
Y23880D01*
X28683Y23933D01*
X28737D01*
X28790Y23880D01*
Y23827D01*
Y23880D01*
X28843Y23933D01*
X28897D01*
X28950Y23880D01*
Y23773D01*
X28897Y23720D01*
X28630Y24040D02*
X28843D01*
X28950Y24146D01*
X28843Y24253D01*
X28630D01*
X28683Y22613D02*
X28630Y22560D01*
Y22453D01*
X28683Y22400D01*
X28897D01*
X28950Y22453D01*
Y22560D01*
X28897Y22613D01*
X28790D01*
Y22507D01*
X28950Y22720D02*
X28630D01*
X28950Y22933D01*
X28630D01*
Y23040D02*
X28950D01*
Y23200D01*
X28897Y23253D01*
X28683D01*
X28630Y23200D01*
Y23040D01*
Y21400D02*
Y21613D01*
Y21507D01*
X28950D01*
X28683Y21933D02*
X28630Y21880D01*
Y21773D01*
X28683Y21720D01*
X28897D01*
X28950Y21773D01*
Y21880D01*
X28897Y21933D01*
X28630Y22040D02*
X28950D01*
X28843D01*
X28630Y22253D01*
X28790Y22093D01*
X28950Y22253D01*
X28630Y20400D02*
Y20613D01*
Y20507D01*
X28950D01*
X28630Y20720D02*
X28950D01*
Y20880D01*
X28897Y20933D01*
X28683D01*
X28630Y20880D01*
Y20720D01*
Y21200D02*
Y21093D01*
X28683Y21040D01*
X28897D01*
X28950Y21093D01*
Y21200D01*
X28897Y21253D01*
X28683D01*
X28630Y21200D01*
Y19400D02*
Y19613D01*
Y19507D01*
X28950D01*
X28630Y19720D02*
X28950D01*
Y19880D01*
X28897Y19933D01*
X28683D01*
X28630Y19880D01*
Y19720D01*
Y20040D02*
Y20146D01*
Y20093D01*
X28950D01*
Y20040D01*
Y20146D01*
X28630Y18400D02*
Y18613D01*
Y18507D01*
X28950D01*
Y18720D02*
X28630D01*
X28737Y18827D01*
X28630Y18933D01*
X28950D01*
X28683Y19253D02*
X28630Y19200D01*
Y19093D01*
X28683Y19040D01*
X28737D01*
X28790Y19093D01*
Y19200D01*
X28843Y19253D01*
X28897D01*
X28950Y19200D01*
Y19093D01*
X28897Y19040D01*
X23509Y24970D02*
Y24650D01*
Y24810D01*
X23722D01*
Y24970D01*
Y24650D01*
X23829Y24970D02*
X23936D01*
X23882D01*
Y24650D01*
X23829D01*
X23936D01*
X23470Y24262D02*
Y23942D01*
X23683D01*
X23950Y24262D02*
X23843D01*
X23790Y24208D01*
Y23995D01*
X23843Y23942D01*
X23950D01*
X24003Y23995D01*
Y24208D01*
X23950Y24262D01*
M02*
