G04 Layer_Color=20142*
%FSLAX24Y24*%
%MOIN*%
G70*
G01*
G75*
%ADD40R,0.0592X0.0769*%
%ADD41R,0.0572X0.0513*%
%ADD42R,0.0631X0.0789*%
%ADD43R,0.0513X0.0572*%
G04:AMPARAMS|DCode=44|XSize=51.3mil|YSize=57.2mil|CornerRadius=0mil|HoleSize=0mil|Usage=FLASHONLY|Rotation=225.000|XOffset=0mil|YOffset=0mil|HoleType=Round|Shape=Rectangle|*
%AMROTATEDRECTD44*
4,1,4,-0.0021,0.0384,0.0384,-0.0021,0.0021,-0.0384,-0.0384,0.0021,-0.0021,0.0384,0.0*
%
%ADD44ROTATEDRECTD44*%

%ADD45R,0.0480X0.0280*%
%ADD46O,0.0178X0.0690*%
%ADD47O,0.0690X0.0178*%
%ADD48R,0.0454X0.0316*%
%ADD49R,0.0316X0.0749*%
G04:AMPARAMS|DCode=50|XSize=63.1mil|YSize=78.9mil|CornerRadius=0mil|HoleSize=0mil|Usage=FLASHONLY|Rotation=225.000|XOffset=0mil|YOffset=0mil|HoleType=Round|Shape=Rectangle|*
%AMROTATEDRECTD50*
4,1,4,-0.0056,0.0502,0.0502,-0.0056,0.0056,-0.0502,-0.0502,0.0056,-0.0056,0.0502,0.0*
%
%ADD50ROTATEDRECTD50*%

%ADD51R,0.0730X0.0297*%
%ADD52O,0.0730X0.0297*%
%ADD53R,0.0434X0.0493*%
G04:AMPARAMS|DCode=54|XSize=86.7mil|YSize=86.7mil|CornerRadius=23.7mil|HoleSize=0mil|Usage=FLASHONLY|Rotation=0.000|XOffset=0mil|YOffset=0mil|HoleType=Round|Shape=RoundedRectangle|*
%AMROUNDEDRECTD54*
21,1,0.0867,0.0394,0,0,0.0*
21,1,0.0394,0.0867,0,0,0.0*
1,1,0.0474,0.0197,-0.0197*
1,1,0.0474,-0.0197,-0.0197*
1,1,0.0474,-0.0197,0.0197*
1,1,0.0474,0.0197,0.0197*
%
%ADD54ROUNDEDRECTD54*%
%ADD55O,0.0671X0.1280*%
%ADD56R,0.0671X0.0671*%
%ADD57C,0.0671*%
G36*
X23340Y23910D02*
X22860D01*
Y24890D01*
X23340D01*
Y23910D01*
D02*
G37*
D40*
X21950Y36000D02*
D03*
X23151D02*
D03*
X28950Y32800D02*
D03*
X27749D02*
D03*
D41*
X22950Y25470D02*
D03*
X22281D02*
D03*
D42*
X27762Y34420D02*
D03*
X26738D02*
D03*
X27408Y37090D02*
D03*
X28432D02*
D03*
D43*
X22450Y39250D02*
D03*
Y38581D02*
D03*
Y42000D02*
D03*
Y42669D02*
D03*
Y43900D02*
D03*
Y44569D02*
D03*
Y45500D02*
D03*
Y46169D02*
D03*
X25800Y33000D02*
D03*
Y32331D02*
D03*
X25450Y25450D02*
D03*
Y26119D02*
D03*
X23350Y32400D02*
D03*
Y31731D02*
D03*
D44*
X28790Y27900D02*
D03*
X28317Y28373D02*
D03*
D45*
X23100Y24750D02*
D03*
Y24400D02*
D03*
Y24050D02*
D03*
D46*
X23814Y31475D02*
D03*
X24010D02*
D03*
X24207D02*
D03*
X24404D02*
D03*
X24601D02*
D03*
X24798D02*
D03*
X24995D02*
D03*
X25192D02*
D03*
X25388D02*
D03*
X25585D02*
D03*
X25782D02*
D03*
X25979D02*
D03*
X26176D02*
D03*
X26373D02*
D03*
X26570D02*
D03*
X26766D02*
D03*
Y27125D02*
D03*
X26570D02*
D03*
X26373D02*
D03*
X26176D02*
D03*
X25979D02*
D03*
X25782D02*
D03*
X25585D02*
D03*
X25388D02*
D03*
X25192D02*
D03*
X24995D02*
D03*
X24798D02*
D03*
X24601D02*
D03*
X24404D02*
D03*
X24207D02*
D03*
X24010D02*
D03*
X23814D02*
D03*
D47*
X27465Y30776D02*
D03*
Y30580D02*
D03*
Y30383D02*
D03*
Y30186D02*
D03*
Y29989D02*
D03*
Y29792D02*
D03*
Y29595D02*
D03*
Y29398D02*
D03*
Y29202D02*
D03*
Y29005D02*
D03*
Y28808D02*
D03*
Y28611D02*
D03*
Y28414D02*
D03*
Y28217D02*
D03*
Y28020D02*
D03*
Y27824D02*
D03*
X23115D02*
D03*
Y28020D02*
D03*
Y28217D02*
D03*
Y28414D02*
D03*
Y28611D02*
D03*
Y28808D02*
D03*
Y29005D02*
D03*
Y29202D02*
D03*
Y29398D02*
D03*
Y29595D02*
D03*
Y29792D02*
D03*
Y29989D02*
D03*
Y30186D02*
D03*
Y30383D02*
D03*
Y30580D02*
D03*
Y30776D02*
D03*
D48*
X21857Y26924D02*
D03*
Y26550D02*
D03*
Y26176D02*
D03*
X22743Y26924D02*
D03*
Y26550D02*
D03*
Y26176D02*
D03*
D49*
X27770Y35416D02*
D03*
X27396Y36204D02*
D03*
X28144D02*
D03*
D50*
X23112Y34962D02*
D03*
X22388Y34238D02*
D03*
D51*
X23200Y46150D02*
D03*
D52*
Y45835D02*
D03*
Y45520D02*
D03*
Y45205D02*
D03*
Y44890D02*
D03*
Y44575D02*
D03*
Y44260D02*
D03*
Y43945D02*
D03*
Y43630D02*
D03*
Y43315D02*
D03*
Y43000D02*
D03*
Y42685D02*
D03*
Y42370D02*
D03*
Y42056D02*
D03*
Y41741D02*
D03*
Y41426D02*
D03*
Y41111D02*
D03*
Y40796D02*
D03*
Y40481D02*
D03*
Y40166D02*
D03*
Y39851D02*
D03*
Y39536D02*
D03*
Y39221D02*
D03*
Y38906D02*
D03*
Y38591D02*
D03*
X27751Y46150D02*
D03*
Y45835D02*
D03*
Y45520D02*
D03*
Y45205D02*
D03*
Y44890D02*
D03*
Y44575D02*
D03*
Y44260D02*
D03*
Y43945D02*
D03*
Y43630D02*
D03*
Y43315D02*
D03*
Y43000D02*
D03*
Y42685D02*
D03*
Y42370D02*
D03*
Y42056D02*
D03*
Y41741D02*
D03*
Y41426D02*
D03*
Y41111D02*
D03*
Y40796D02*
D03*
Y40481D02*
D03*
Y40166D02*
D03*
Y39851D02*
D03*
Y39536D02*
D03*
Y39221D02*
D03*
Y38906D02*
D03*
Y38591D02*
D03*
D53*
X22316Y24300D02*
D03*
X21784D02*
D03*
D54*
X29750Y16800D02*
D03*
Y17800D02*
D03*
Y18800D02*
D03*
Y19800D02*
D03*
Y20800D02*
D03*
Y21800D02*
D03*
Y22800D02*
D03*
Y23800D02*
D03*
Y24800D02*
D03*
Y25800D02*
D03*
Y26800D02*
D03*
Y27800D02*
D03*
Y28800D02*
D03*
Y29800D02*
D03*
Y30800D02*
D03*
Y31800D02*
D03*
Y32800D02*
D03*
Y33800D02*
D03*
Y34800D02*
D03*
Y35800D02*
D03*
Y36800D02*
D03*
Y37800D02*
D03*
Y38800D02*
D03*
Y39800D02*
D03*
Y40800D02*
D03*
Y41800D02*
D03*
Y42800D02*
D03*
Y43800D02*
D03*
Y44800D02*
D03*
Y45800D02*
D03*
Y46800D02*
D03*
Y47800D02*
D03*
X20750Y16800D02*
D03*
Y17800D02*
D03*
Y18800D02*
D03*
Y19800D02*
D03*
Y20800D02*
D03*
Y21800D02*
D03*
Y22800D02*
D03*
Y23800D02*
D03*
Y24800D02*
D03*
Y25800D02*
D03*
Y26800D02*
D03*
Y27800D02*
D03*
Y28800D02*
D03*
Y29800D02*
D03*
Y30800D02*
D03*
Y31800D02*
D03*
Y32800D02*
D03*
Y33800D02*
D03*
Y34800D02*
D03*
Y35800D02*
D03*
Y36800D02*
D03*
Y37800D02*
D03*
Y38800D02*
D03*
Y39800D02*
D03*
Y40800D02*
D03*
Y41800D02*
D03*
Y42800D02*
D03*
Y43800D02*
D03*
Y44800D02*
D03*
Y45800D02*
D03*
Y46800D02*
D03*
Y47800D02*
D03*
D55*
X23450Y18550D02*
D03*
X24450D02*
D03*
X25450D02*
D03*
X26450D02*
D03*
D56*
X27950Y18800D02*
D03*
D57*
Y19800D02*
D03*
Y20800D02*
D03*
Y21800D02*
D03*
Y22800D02*
D03*
Y23800D02*
D03*
M02*
