M48
;Layer_Color=6321
;FILE_FORMAT=2:4
INCH,LZ
;TYPE=PLATED
T1F00S00C0.0150
T2F00S00C0.0354
T3F00S00C0.0630
%
T01
X022056Y02095
X022Y0231
X02325Y02305
X02253Y02427
X022Y02525
X02155Y02595
X0216Y0265
X02195Y0269
X02288Y02685
X0233Y02585
X0247Y0251
X0258Y02405
X0259Y0275
Y02835
Y0291
X02675
Y02835
Y0275
X02485
Y02835
Y0291
X0245Y03005
X02371Y03033
X02635Y03005
X0278Y03065
X029Y0286
X0223
X02225Y02765
X02165Y0279
X02705Y0202
X0276Y0322
X02625Y0326
X02695Y03405
X025Y03385
X02345
X0225Y03425
X02279Y03289
X02165Y03285
X0241Y0321
X024764Y031564
X024Y03645
X0223Y0365
Y03895
X02405Y03835
X02665
X02695Y0403
X0258Y0418
X02505Y0443
X02549Y04514
X0273Y04475
Y04415
X028Y04585
X0231Y0446
X023Y04365
X0231Y04325
X0223Y04345
X0289Y0378
X02415Y04695
T02
X02345Y01885
X02445
X02545
X02645
X02795Y0188
Y0198
Y0208
Y0218
Y0228
Y0238
T03
X02075Y0168
Y0178
Y0188
Y0198
Y0208
Y0218
Y0228
Y0238
Y0248
Y0258
Y0268
Y0278
Y0288
Y0298
Y0308
X02975
Y0298
Y0288
Y0278
Y0268
Y0258
Y0248
Y0238
Y0228
Y0218
Y0208
Y0198
Y0188
Y0178
Y0168
Y0318
Y0328
Y0338
Y0348
Y0358
Y0368
Y0378
Y0388
Y0398
Y0408
Y0418
Y0428
Y0438
Y0448
Y0458
Y0468
X02075
Y0458
Y0448
Y0438
Y0428
Y0418
Y0408
Y0398
Y0388
Y0378
Y0368
Y0358
Y0348
Y0338
Y0328
Y0318
Y0478
X02975
M30
