M48
;Layer_Color=6321
;FILE_FORMAT=2:4
INCH,LZ
;TYPE=PLATED
T1F00S00C0.0150
T2F00S00C0.0354
T3F00S00C0.0630
%
T01
X02495Y01945
X02385Y0226
X0227Y0231
X02225Y0228
X0231Y0237
X0235Y0255
X0232Y02664
X02245Y02755
X021857Y027557
X02205Y02855
X02375Y02975
X02405Y0309
X025782Y030868
X02626Y03094
X026802Y029398
X02529Y0293
X02495Y0278
X02645Y02605
X02545Y0249
X0218Y02578
X02906Y02707
X02905Y0294
X029Y0203
X02895Y0321
X02775
X0258Y03355
X0237Y03285
X02195Y0335
X0221Y0339
X02275Y0346
X0216Y0351
X02175Y0368
X02335Y03805
X02245Y0399
Y0414
Y0433
X02155Y043
X0243Y04285
X02425Y04085
X026105
X0271Y0427
Y04455
Y04615
X02245Y04505
X02715Y0386
X02825Y0382
X0286Y03795
X028944Y037686
X02865Y0354
X02685
X02545Y04745
T02
X02345Y01885
X02445
X02545
X02645
X02795Y0188
Y0198
Y0208
Y0218
Y0228
Y0238
T03
X02075Y0168
Y0178
Y0188
Y0198
Y0208
Y0218
Y0228
Y0238
Y0248
Y0258
Y0268
Y0278
Y0288
Y0298
Y0308
X02975
Y0298
Y0288
Y0278
Y0268
Y0258
Y0248
Y0238
Y0228
Y0218
Y0208
Y0198
Y0188
Y0178
Y0168
Y0318
Y0328
Y0338
Y0348
Y0358
Y0368
Y0378
Y0388
Y0398
Y0408
Y0418
Y0428
Y0438
Y0448
Y0458
Y0468
X02075
Y0458
Y0448
Y0438
Y0428
Y0418
Y0408
Y0398
Y0388
Y0378
Y0368
Y0358
Y0348
Y0338
Y0328
Y0318
Y0478
X02975
M30
